<?xml version="1.0" standalone="no"?>
<!DOCTYPE svg PUBLIC "-//W3C//DTD SVG 1.1//EN" "http://www.w3.org/Graphics/SVG/1.1/DTD/svg11.dtd" >
<svg xmlns="http://www.w3.org/2000/svg">
<metadata>
Created by FontForge 20120731 at Mon Oct 24 17:54:41 2016
 By admin
</metadata>
<defs>
<font id="iconfont" horiz-adv-x="1024" >
  <font-face 
    font-family="iconfont"
    font-weight="500"
    font-stretch="normal"
    units-per-em="1024"
    panose-1="2 0 6 3 0 0 0 0 0 0"
    ascent="896"
    descent="-128"
    x-height="792"
    bbox="-2 -221 2048 896.55"
    underline-thickness="50"
    underline-position="-100"
    unicode-range="U+0078-E70F1"
  />
<missing-glyph horiz-adv-x="374" 
d="M34 0v682h272v-682h-272zM68 34h204v614h-204v-614z" />
    <glyph glyph-name=".notdef" horiz-adv-x="374" 
d="M34 0v682h272v-682h-272zM68 34h204v614h-204v-614z" />
    <glyph glyph-name=".null" horiz-adv-x="0" 
 />
    <glyph glyph-name="nonmarkingreturn" horiz-adv-x="341" 
 />
    <glyph glyph-name="x" unicode="x" horiz-adv-x="1001" 
d="M281 543q-27 -1 -53 -1h-83q-18 0 -36.5 -6t-32.5 -18.5t-23 -32t-9 -45.5v-76h912v41q0 16 -0.5 30t-0.5 18q0 13 -5 29t-17 29.5t-31.5 22.5t-49.5 9h-133v-97h-438v97zM955 310v-52q0 -23 0.5 -52t0.5 -58t-10.5 -47.5t-26 -30t-33 -16t-31.5 -4.5q-14 -1 -29.5 -0.5
t-29.5 0.5h-32l-45 128h-439l-44 -128h-29h-34q-20 0 -45 1q-25 0 -41 9.5t-25.5 23t-13.5 29.5t-4 30v167h911zM163 247q-12 0 -21 -8.5t-9 -21.5t9 -21.5t21 -8.5q13 0 22 8.5t9 21.5t-9 21.5t-22 8.5zM316 123q-8 -26 -14 -48q-5 -19 -10.5 -37t-7.5 -25t-3 -15t1 -14.5
t9.5 -10.5t21.5 -4h37h67h81h80h64h36q23 0 34 12t2 38q-5 13 -9.5 30.5t-9.5 34.5q-5 19 -11 39h-368zM336 498v228q0 11 2.5 23t10 21.5t20.5 15.5t34 6h188q31 0 51.5 -14.5t20.5 -52.5v-227h-327z" />
    <glyph glyph-name="uniE600" unicode="&#xe600;" 
d="M591 318h315q22 0 38 15.5t16 38.5v321q0 22 -16 37.5t-38 15.5h-315q-22 0 -38 -15.5t-16 -37.5v-321q0 -23 16 -38.5t38 -15.5zM575 693q0 6 4.5 11t11.5 5h315q7 0 11.5 -5t4.5 -11v-321q0 -7 -4.5 -11.5t-11.5 -4.5h-315q-7 0 -11.5 4.5t-4.5 11.5v321zM591 -147h315
q22 0 38 15.5t16 37.5v322q0 22 -16 37.5t-38 15.5h-315q-22 0 -38 -15.5t-16 -37.5v-322q0 -22 16 -37.5t38 -15.5zM119 -147h316q22 0 37.5 15.5t15.5 37.5v322q0 22 -15.5 37.5t-37.5 15.5h-316q-22 0 -37.5 -15.5t-15.5 -37.5v-322q0 -22 15.5 -37.5t37.5 -15.5z
M103 228q0 6 5 10.5t11 4.5h316q6 0 11 -4.5t5 -10.5v-322q0 -6 -5 -11t-11 -5h-316q-6 0 -11 5t-5 11v322zM119 319h316q22 0 37.5 15.5t15.5 37.5v322q0 22 -15.5 37.5t-37.5 15.5h-316q-22 0 -37.5 -15.5t-15.5 -37.5v-322q0 -22 15.5 -37.5t37.5 -15.5zM103 694
q0 6 5 11t11 5h316q6 0 11 -5t5 -11v-322q0 -6 -5 -10.5t-11 -4.5h-316q-6 0 -11 4.5t-5 10.5v322z" />
    <glyph glyph-name="uniE601" unicode="&#xe601;" 
d="M512 -148q-185 0 -316.5 131.5t-131.5 316.5t131.5 316.5t316.5 131.5t316.5 -131.5t131.5 -316.5t-131.5 -316.5t-316.5 -131.5zM512 684q-104 0 -192.5 -51.5t-140 -140t-51.5 -192.5t51.5 -192.5t140 -140t192.5 -51.5t192.5 51.5t140 140t51.5 192.5t-51.5 192.5
t-140 140t-192.5 51.5zM557 299l138 136q10 10 10 23t-9.5 22.5t-22.5 9.5t-23 -9l-138 -137l-137 137q-9 9 -22 9t-22.5 -9t-9.5 -22.5t9 -22.5l136 -137l-137 -136q-9 -9 -9.5 -22.5t9 -23t22.5 -9.5q14 0 23 10l138 136l138 -140q10 -9 23 -9t22.5 9.5t9.5 22.5t-9 23z
" />
    <glyph glyph-name="uniE602" unicode="&#xe602;" 
d="M746 156q-14 -19 -33 -37l220 -216l36 34zM824 389q0 -104 -49 -190.5t-133.5 -135t-185.5 -48.5q-105 2 -189.5 52.5t-131.5 135.5t-47 186q0 97 49.5 180.5t134.5 132.5t184 49t184.5 -49.5t134.5 -133t49 -179.5zM454 702q-131 0 -224 -93t-93 -226t93 -226.5
t224 -93.5q86 0 160 43t117.5 116.5t43.5 160.5t-43.5 160.5t-117.5 116t-160 42.5z" />
    <glyph glyph-name="uniE603" unicode="&#xe603;" 
d="M644 -105q-25 0 -41 18q-16 17 -42.5 35t-48.5 18q-23 0 -49.5 -18t-41.5 -34q-16 -18 -41 -18q-11 0 -21 5h-1l-107 60l-1 1q-14 10 -19 27.5t2 33.5q10 23 10 43q0 47 -33 80t-80 33h-4q-14 0 -24 11t-13 30q-10 48 -10 85t10 85q3 19 13.5 30t23.5 10h4q47 0 80 33.5
t33 79.5q0 21 -10 44q-7 16 -2 33.5t19 27.5l2 1l112 62h1q10 4 21 4q25 0 41 -16q15 -17 41 -34t48 -17t47.5 17t41.5 33t40 16q12 0 21 -4l2 -1l108 -60l1 -1q15 -10 20 -27.5t-2 -33.5q-10 -23 -10 -44q0 -46 33 -79.5t80 -33.5h3q14 1 24.5 -10t13.5 -30q9 -48 9 -85
t-9 -85q-3 -19 -13.5 -30t-24.5 -11h-3q-47 0 -80 -33t-33 -80q0 -20 10 -43q7 -16 2 -33.5t-20 -27.5l-1 -1l-110 -61l-1 -1q-10 -4 -21 -4zM641 -53q1 -1 3 -1l103 57q-13 33 -13 63q0 66 45 113.5t110 50.5q8 45 8 75t-8 75q-65 3 -110 50.5t-45 112.5q0 31 13 64
l-101 56h-1q-2 0 -3 -1q-16 -16 -38 -32q-47 -33 -88 -33t-89 34q-22 16 -37 32q-2 1 -4 1h-1l-105 -57q14 -33 14 -64q0 -65 -45 -112.5t-110 -50.5q-8 -45 -8 -75t8 -75q65 -3 110 -50.5t45 -113.5q0 -30 -14 -63l100 -55h3q16 18 38 34q49 35 91 35t90 -36q23 -16 39 -34
zM512 155q-62 0 -106 44t-44 106.5t44 106.5t106 44t106 -44t44 -106.5t-44 -106.5t-106 -44zM512 405q-41 0 -70 -29t-29 -70.5t29 -70.5t70 -29t70 29t29 70.5t-29 70.5t-70 29z" />
    <glyph glyph-name="uniE604" unicode="&#xe604;" 
d="M920 655h-223v69q0 7 -5 12t-12.5 5t-12.5 -5t-5 -12v-69h-296v69q0 7 -5 12t-12 5t-12 -5t-5 -12v-69h-232q-16 0 -27 -11.5t-11 -26.5v-713q0 -16 11 -27t27 -11h820q16 0 27 11t11 27v713q0 15 -11 26.5t-27 11.5zM924 -96q0 -4 -4 -4h-820q-4 0 -4 4v713q0 3 4 3h232
v-60q0 -7 5 -12t12 -5t12 5t5 12v60h296v-60q0 -7 5 -12t12 -5t12 5t5 12v60h224q3 0 3 -3v-713h1zM393 443h-51q-9 0 -15 -6.5t-6 -14.5v-36q0 -8 6 -14.5t15 -6.5h51q8 0 14.5 6.5t6.5 14.5v36q0 8 -6.5 14.5t-14.5 6.5zM544 443h-51q-8 0 -14.5 -6.5t-6.5 -14.5v-36
q0 -8 6.5 -14.5t14.5 -6.5h51q9 0 15 6.5t6 14.5v36q0 8 -6 14.5t-15 6.5zM695 443h-51q-8 0 -14 -6.5t-6 -14.5v-36q0 -8 6 -14.5t14 -6.5h51q9 0 15 6.5t6 14.5v36q0 8 -6 14.5t-15 6.5zM393 299h-51q-9 0 -15 -6t-6 -15v-36q0 -8 6 -14t15 -6h51q8 0 14.5 6t6.5 14v36
q0 9 -6.5 15t-14.5 6zM544 299h-51q-8 0 -14.5 -6t-6.5 -15v-36q0 -8 6.5 -14t14.5 -6h51q8 0 14.5 6t6.5 14v36q0 9 -6 15t-15 6zM695 299h-51q-8 0 -14 -6t-6 -15v-36q0 -8 6 -14t14 -6h51q9 0 15 6t6 14v36q0 9 -6 15t-15 6zM393 155h-51q-9 0 -15 -6t-6 -14v-36
q0 -9 6 -15t15 -6h51q8 0 14.5 6t6.5 15v36q0 8 -6.5 14t-14.5 6zM544 155h-51q-8 0 -14.5 -6t-6.5 -14v-36q0 -9 6.5 -15t14.5 -6h51q8 0 14.5 6t6.5 15v36q0 8 -6.5 14t-14.5 6zM695 155h-51q-8 0 -14 -6t-6 -14v-36q0 -9 6 -15t14 -6h51q9 0 15 6t6 15v36q0 8 -6 14
t-15 6z" />
    <glyph glyph-name="uniE605" unicode="&#xe605;" 
d="M179 608h-90q-10 0 -17.5 -7.5t-7.5 -18t7.5 -18t17.5 -7.5h90q10 0 17.5 7.5t7.5 18t-7.5 18t-17.5 7.5zM322 557h611q10 0 17.5 7.5t7.5 18t-7.5 18t-17.5 7.5h-611q-10 0 -17.5 -7.5t-7.5 -18t7.5 -18t17.5 -7.5zM179 327h-90q-10 0 -17.5 -7.5t-7.5 -18t7.5 -18
t17.5 -7.5h90q10 0 17.5 7.5t7.5 18t-7.5 18t-17.5 7.5zM933 327h-611q-10 0 -17.5 -7.5t-7.5 -18t7.5 -18t17.5 -7.5h611q10 0 17.5 7.5t7.5 18t-7.5 18t-17.5 7.5zM179 46h-90q-10 0 -17.5 -7.5t-7.5 -18t7.5 -18t17.5 -7.5h90q10 0 17.5 7.5t7.5 18t-7.5 18t-17.5 7.5z
M933 46h-611q-10 0 -17.5 -7.5t-7.5 -18t7.5 -18t17.5 -7.5h611q10 0 17.5 7.5t7.5 18t-7.5 18t-17.5 7.5z" />
    <glyph glyph-name="uniE606" unicode="&#xe606;" 
d="M374 45q-40 0 -68 -28t-28 -67.5t28 -67.5t68 -28t68 28t28 67.5t-28 67.5t-68 28zM374 -104q-22 0 -37.5 16t-15.5 38t15.5 37.5t37.5 15.5t37.5 -15.5t15.5 -37.5t-15.5 -38t-37.5 -16zM215 620l-22 128h-128v-43h89l103 -596h596v43h-557l-12 66l569 61l106 298v43
h-744zM831 322l-554 -62l-55 317h688zM735.5 45q-39.5 0 -67.5 -28t-28 -67.5t28 -67.5t67.5 -28t67.5 28t28 67.5t-28 67.5t-67.5 28zM736 -104q-22 0 -38 16t-16 38t16 37.5t38 15.5t37.5 -15.5t15.5 -37.5t-15.5 -38t-37.5 -16z" />
    <glyph glyph-name="uniE607" unicode="&#xe607;" 
d="M893.5 579q-73.5 74 -178.5 74t-179 -74l-25 -25l-25 25q-74 74 -178.5 74t-178.5 -74t-74 -178.5t74 -178.5l25 -25l357 -304l357 304l25 25q74 74 74 178.5t-73.5 178.5z" />
    <glyph glyph-name="uniE608" unicode="&#xe608;" 
d="M729 687q-67 0 -123.5 -39t-82.5 -101q-33 59 -96.5 99.5t-134.5 40.5q-26 0 -50 -6q-82 -20 -132 -92t-45 -163q6 -111 80 -200l319 -317q20 -20 48.5 -20t48.5 20l315 315q43 39 63 102.5t20 126.5q0 97 -67.5 165.5t-162.5 68.5zM841 261l-316 -316q-5 -5 -12.5 -5
t-12.5 5l-317 315q-62 74 -67 169q-4 72 35 129.5t103 72.5q18 4 36 4q51 0 106 -34t90 -81.5t35 -84.5v0q0 42 28.5 89t77 79.5t97.5 32.5q73 0 128.5 -54.5t55.5 -128.5q0 -52 -16.5 -106t-50.5 -86z" />
    <glyph glyph-name="uniE609" unicode="&#xe609;" 
d="M83 747l311 -383v-510l248 179v332l299 382h-858zM611 49l-186 -134v432h186v-298zM613 379l-1 -1h-189l-275 338h730zM613 379z" />
    <glyph glyph-name="uniE60A" unicode="&#xe60a;" 
d="M471 -16h-8l-7 6q-6 7 -6 19q1 16 3 34.5t9.5 51.5t20 62t36 62t53.5 57t77.5 40.5t104.5 19.5v84q-2 15 7 24q14 16 38 5l4 -1l156 -170q16 -19 16 -40t-20 -40l-156 -180q-12 -13 -26 -13q-15 0 -23 14q-4 9 -4 25v102q-18 0 -37 -1.5t-49.5 -10t-58 -23.5t-57.5 -44
t-52 -69q-7 -14 -21 -14zM739 184q10 0 28 -1l17 -3v-121l143 165q10 9 10 14q0 6 -7 15l-138 150v-105h-19q-57 0 -103 -15t-75 -38t-50.5 -54.5t-32 -59.5t-16.5 -60q29 36 65 60.5t70.5 35t59.5 14t48 3.5zM739 184zM692 -34q-15 -4 -30 -4h-434q-42 0 -71.5 28t-29.5 70
v455q0 41 29.5 71t71.5 30h434h5h1q2 -1 4 -1h1h3q1 0 2 -1h2q2 0 4 -1h2q1 0 2 -1h1q3 -1 5 -2h1q34 -11 53 -42q14 -23 15 -49h48v2q0 24 -8 47h1q-15 41 -50.5 67.5t-80.5 27.5h-2h-1h-448q-59 0 -100.5 -41.5t-41.5 -100.5v-465q0 -59 41.5 -100.5t100.5 -41.5h447
q67 0 109 52h-86zM692 -34zM199 435h410v-47h-410v47zM199 310h300v-47h-300v47zM199 190h214v-48h-214v48z" />
    <glyph glyph-name="uniE60B" unicode="&#xe60b;" 
d="M512 755q75 0 141 -28t115 -77.5t77 -115.5t28 -140q0 -76 -28 -141.5t-77 -114.5t-115 -77t-141 -28t-141 28t-115 77t-77.5 114.5t-28.5 141.5q0 74 28.5 140t77.5 115.5t115 77.5t141 28zM719 344q21 0 35.5 15t14.5 36.5t-14.5 36t-35.5 14.5h-154v154q0 22 -15.5 37
t-36.5 15t-36 -15t-15 -37v-154h-154q-21 0 -36 -14.5t-15 -36t15 -36.5t36 -15h154v-153q0 -22 15 -37t36 -15t36.5 15t15.5 37v153h154zM719 344z" />
    <glyph glyph-name="uniE60C" unicode="&#xe60c;" horiz-adv-x="1025" 
d="M512 -63q-91 0 -174 35.5t-143 95.5t-95.5 143t-35.5 174t35.5 174t95.5 143t143 95.5t174 35.5t174 -35.5t143 -95.5t95.5 -143t35.5 -174t-35.5 -174t-95.5 -143t-143 -95.5t-174 -35.5zM512 769q-104 0 -192.5 -51.5t-140 -140t-51.5 -192.5t51.5 -192.5t140 -139.5
t192.5 -51t192.5 51t140 139.5t51.5 192.5t-51.5 192.5t-140 140t-192.5 51.5zM727 504q-9 10 -22.5 9.5t-22.5 -9.5l-234 -236l-103 106q-9 10 -22.5 10t-23 -9t-9.5 -22.5t9 -22.5l126 -130h1q1 -2 7 -5l1 -1q1 -1 2 -1q6 -3 12 -3t12 3q1 0 2 1t2 1q5 3 6 4l1 1l256 259
q10 9 9.5 22.5t-9.5 22.5zM727 504z" />
    <glyph glyph-name="uniE60D" unicode="&#xe60d;" 
d="M925 558q-34 80 -96 142t-142 96q-83 35 -174 35t-175 -35q-80 -34 -142 -96t-96 -142q-35 -84 -35 -175t35 -174q34 -80 96 -142t142 -96q84 -36 175 -36t174 36q80 34 142 96t96 142q36 83 36 174t-36 175zM784.5 111.5q-54.5 -54.5 -124.5 -83.5t-147 -29t-147 29
t-124.5 83.5t-83.5 124.5t-29 147t29 147t83.5 124.5t124.5 83.5t147 29t147 -29t124.5 -83.5t83.5 -124.5t29 -147t-29 -147t-83.5 -124.5zM474 144h64v-64h-64v64zM533 661q-39 5 -77 -9t-64 -39q-48 -44 -55 -126l64 -5q5 57 34 85q16 14 41.5 23.5t50.5 7.5
q67 -8 82 -76q7 -27 -3.5 -53.5t-27.5 -37.5q-105 -65 -105 -127v-96h64v96q0 6 2.5 11.5t5.5 10.5t9.5 11t11 9.5t12.5 9t12 8.5l12 7q8 5 10 6q36 23 53 68.5t7 90.5q-12 52 -47 85.5t-92 39.5z" />
    <glyph glyph-name="uniE60E" unicode="&#xe60e;" 
d="M754 794q0 16 -11 27t-26 11h-540q-16 0 -27 -11t-11 -27v-689q0 -16 11 -27t27 -11h37v653q0 15 11 26t26 11h503v37zM736 49v-110q29 7 46 24l77 77q17 17 23 46h-109q-15 0 -26 -11t-11 -26zM847 701h-540q-15 0 -26 -11t-11 -26v-690q0 -15 11 -26t26 -11h391v112
q0 31 22 52.5t53 21.5h112v541q0 15 -11 26t-27 11z" />
    <glyph glyph-name="uniE60F" unicode="&#xe60f;" 
d="M151 622q-2 8 4.5 16t16.5 11q37 11 75 11q103 0 194.5 -82.5t109.5 -188.5h5h4h2q34 -5 48 -28q9 -14 9 -30q0 -15 -8 -29q-2 -2 -3 -4l-108 -137q-19 -24 -50 -24t-49 24l-108 137q-12 15 -12 34q0 16 9 30q17 27 55 27h1q-7 68 -58 133t-109 82q-28 8 -28 18zM554 332
h-28q-12 0 -20 8t-9 19q-4 81 -71.5 154t-147.5 87q58 -45 94 -110.5t32 -130.5q-1 -11 -9.5 -19t-19.5 -8h-30h-7l108 -136q2 -2 4.5 -2t4.5 2l106 135q-1 1 -7 1zM900 466v-454q0 -43 -30.5 -74t-74.5 -31h-490q-43 0 -74 31t-31 74v218h60v-218q0 -19 13.5 -32t31.5 -13
h490q19 0 32 13t13 32v454q0 19 -13 32t-32 13h-174v60h174q44 0 74.5 -30.5t30.5 -74.5z" />
    <glyph glyph-name="uniE610" unicode="&#xe610;" 
d="M512 652q144 0 248 -104t104 -248t-104 -248t-248 -104t-248 104t-104 248t104 248t248 104zM512 748q-187 0 -317.5 -130.5t-130.5 -317.5t130.5 -317.5t317.5 -130.5t317.5 130.5t130.5 317.5t-130.5 317.5t-317.5 130.5z" />
    <glyph glyph-name="uniE611" unicode="&#xe611;" 
d="M845 749h-667q-47 0 -81 -33.5t-34 -81.5v-666q0 -48 34 -81.5t81 -33.5h667q47 0 80.5 33.5t33.5 81.5v666q0 48 -33.5 81.5t-80.5 33.5zM823 420l-354 -355q-7 -6 -16.5 -6t-15.5 6l-7 7h-1l-7 8l-34 34v0l-153 155q-7 7 -7 16t7 16l48 48q7 7 16 7t16 -7l138 -139
l290 290q6 7 15.5 7t16.5 -7l48 -48q7 -7 7 -16t-7 -16z" />
    <glyph glyph-name="uniE612" unicode="&#xe612;" 
d="M832 -128h-640q-40 0 -68 28t-28 68v640q0 40 28 68t68 28h640q40 0 68 -28t28 -68v-640q0 -40 -28 -68t-68 -28zM192 640q-13 0 -22.5 -9.5t-9.5 -22.5v-640q0 -13 9.5 -22.5t22.5 -9.5h640q13 0 22.5 9.5t9.5 22.5v640q0 13 -9.5 22.5t-22.5 9.5h-640z" />
    <glyph glyph-name="uniE613" unicode="&#xe613;" 
d="M512 -78q-102 0 -189 51t-138 138t-51 189t51 189t138 138t189 51t189 -51t138 -138t51 -189t-51 -189t-138 -138t-189 -51zM512 773q-96 0 -183.5 -38t-150.5 -101t-101 -150.5t-38 -183.5t38 -183.5t101 -150.5t150.5 -101t183.5 -38t183.5 38t150.5 101t101 150.5
t38 183.5t-38 183.5t-101 150.5t-150.5 101t-183.5 38zM512 536q-97 0 -166.5 -69.5t-69.5 -166.5t69.5 -166.5t166.5 -69.5t166.5 69.5t69.5 166.5t-69.5 166.5t-166.5 69.5z" />
    <glyph glyph-name="uniE614" unicode="&#xe614;" horiz-adv-x="1025" 
d="M1003 477q-10 13 -25 13h-755l-47 169q-6 23 -30 24l-112 3q-14 1 -24 -8.5t-10 -23t9 -23.5t23 -10l88 -3l175 -628v-1q1 -5 4 -9l1 -1q2 -4 6 -7h1q4 -3 8 -5h1q4 -1 10 -1v0h554q11 0 20 7t12 19l97 458q4 15 -6 27v0zM937 424l-24 -115v1h-631l-28 114h683v0z
M885 179h-570l-17 65h601l-14 -65v0zM351 31l-20 82h540l-17 -82h-503v0zM449 -67q-29 0 -49.5 -21.5t-20.5 -51.5t20.5 -51t49.5 -21t49.5 21t20.5 51t-20.5 51.5t-49.5 21.5zM777 -67q-29 0 -49.5 -21.5t-20.5 -51.5t20.5 -51t49.5 -21t49.5 21t20.5 51.5t-20.5 51.5
t-49.5 21z" />
    <glyph glyph-name="uniE615" unicode="&#xe615;" 
d="M512.5 819q-88.5 0 -169.5 -34.5t-139 -92.5t-92.5 -138.5t-34.5 -169.5t34.5 -169.5t92.5 -138.5t139 -92.5t169 -34.5t168 34q-21 8 -32 27l-103 171q-85 -25 -169 6.5t-131 109.5q-56 93 -30 198.5t119 161.5t198.5 30t161.5 -119q47 -80 36 -168t-73 -151l102 -172
q13 -20 8 -45q84 61 132 153t48 199q0 89 -34.5 169.5t-92.5 138.5t-138.5 92.5t-169 34.5zM385.5 571.5q-57.5 -34.5 -73.5 -100t18.5 -123t100 -74t123 18.5t74 100.5t-18.5 123t-100.5 73.5t-123 -18.5z" />
    <glyph glyph-name="uniE616" unicode="&#xe616;" 
d="M1 482l125 116l382 -377l392 363l123 -109l-510 -473z" />
    <glyph glyph-name="uniE617" unicode="&#xe617;" 
d="M975 -180q1 -2 0 -2.5t0 -1.5v4q0 -12 -8 -20t-19.5 -8t-20 8t-8.5 20q-40 132 -152.5 217t-254.5 85t-255 -87.5t-153 -221.5l1 7q0 -13 -10 -20.5t-19 -7.5q-11 0 -19 8t-8 20q0 1 0.5 4t0.5 4t0.5 1.5t0.5 1.5q34 115 118 201t198 122q-89 42 -143.5 125.5
t-54.5 185.5q0 93 46 172t125 125t172 46t172 -46t125 -125t46 -172q0 -102 -54.5 -185.5t-143.5 -125.5q114 -36 198 -122t118 -201q0 -1 1 -6zM800 464.5q0 119.5 -84.5 204t-204 84.5t-203.5 -84.5t-84 -204t84 -204t203.5 -84.5t204 84.5t84.5 204z" />
    <glyph glyph-name="uniE618" unicode="&#xe618;" horiz-adv-x="1025" 
d="M668.5 616q-6.5 1 -17.5 1q-9 0 -17 -1q-5 0 -9 -1q-4 -2 -5 -4q-2 -2 -3 -5l-53 -95q-11 -20 -24 -45q-9 -19 -23 -46q-4 7 -11.5 22.5t-11.5 23.5q-12 24 -24 45l-53 95q-2 3 -4 5t-6 4q-5 1 -10 1q-8 1 -16 1q-12 0 -19 -1t-10 -3q-3 -3 -2 -8t6 -12l128 -219v-19h-98
q-4 0 -7 -5q-3 -6 -3 -16q0 -13 3 -17.5t7 -4.5h98v-56h-98q-4 0 -7 -5.5t-3 -16.5t3 -16t7 -5h98v-48q0 -3 1.5 -5t4.5 -3l10 -2q7 -1 15 -1q7 0 14 1q6 1 10 2q3 1 4.5 3t1.5 5v48h98q4 0 7 5t3 16t-2.5 16.5t-7.5 5.5h-98v56h98q4 0 7 4.5t3 17.5q0 10 -2.5 15.5
t-7.5 5.5h-98v19l128 219q5 8 6 12q1 5 -1.5 7.5t-9 3.5zM972 160q6 11 11 22q0 1 0.5 1.5t0.5 1.5q41 96 41 201q0 103 -39.5 196.5t-110 164t-164 110t-197.5 39.5h-1h-1h-1h-2q-20 0 -40 -2q-7 -1 -22 -3q-10 -1 -18 -2q-62 -10 -116 -33q-92 -39 -163 -110t-110 -163
q-40 -95 -40 -199t40 -199q28 -66 72 -121q16 -19 32 -36l2 -2l2 -2l2 -2q71 -71 163 -110q95 -40 199 -40t199 40q92 39 163 110l6 6q16 17 32 36q28 35 50 76q0 1 1 2t1 2q5 8 8 16zM851 81q-64 -71 -152 -111.5t-187 -40.5q-88 0 -167.5 32t-142.5 90v1h-1
q-19 17 -36.5 37.5t-24.5 32.5l-8 12q-1 1 -1 2q-74 113 -74 248q0 92 36 176.5t97 145.5t145.5 97t176.5 36t176.5 -36t145.5 -97t97 -145.5t36 -176.5q0 -135 -75 -249l-1 -2q-10 -14 -11 -16q-15 -20 -29 -36z" />
    <glyph glyph-name="uniE619" unicode="&#xe619;" 
d="M296 202q-90 92 -90 222t90 222q91 92 218 92q128 0 219 -92q90 -92 90 -222t-90 -222l-38 37q74 77 74 185t-74.5 184.5t-180.5 76.5q-105 0 -180 -76.5t-75 -184.5t75 -185zM514 -156l-163 262l45 28l118 -189l119 189l45 -28zM514.5 262q-69.5 0 -118.5 49.5
t-49 118.5t49 118t118.5 49t118.5 -49t49 -118t-49 -118.5t-118.5 -49.5zM514.5 544q-47.5 0 -81 -33.5t-33.5 -80.5t33.5 -80.5t81 -33.5t81 33.5t33.5 80.5t-33.5 80.5t-81 33.5z" />
    <glyph glyph-name="uniE61A" unicode="&#xe61a;" horiz-adv-x="1000" 
d="M827 602q47 0 74.5 -23.5t27.5 -71.5v-420q0 -20 -7.5 -38.5t-21 -32t-31 -21.5t-37.5 -8h-660q-20 0 -37 7.5t-30 20t-20.5 29.5t-7.5 35v430q0 40 25 66.5t70 26.5h655zM289 462q-14 0 -27 -5.5t-22.5 -15t-15.5 -22.5t-6 -28.5t6 -28t15.5 -22.5t22.5 -15.5t27 -5.5
q16 0 29.5 5.5t23 15.5t15 22.5t5.5 28.5q0 31 -20.5 51t-52.5 20zM408 200q0 14 -5.5 27.5t-15 23t-23 15t-27.5 5.5h-95q-29 0 -49.5 -21t-20.5 -50v-3v-68h236v68v3zM759 125q15 0 22.5 7.5t7.5 18t-8.5 18.5t-23.5 8h-225q-16 0 -23.5 -8t-7.5 -18.5t7.5 -18t22.5 -7.5
h228zM760 223q15 0 22 7.5t7 17.5q0 12 -6.5 19.5t-21.5 7.5h-232q-15 0 -21.5 -7.5t-6.5 -19.5q0 -10 6 -17.5t22 -7.5h231zM761 319q11 0 19.5 7.5t8.5 18t-8.5 17t-19.5 6.5h-154q-11 0 -19 -6.5t-8 -17t8 -18t19 -7.5h154zM761 319z" />
    <glyph glyph-name="uniE61B" unicode="&#xe61b;" horiz-adv-x="1025" 
d="M1024 512v212q0 45 -31.5 76.5t-76.5 31.5h-808q-45 0 -76.5 -31.5t-31.5 -76.5v-212q53 0 90.5 -37.5t37.5 -90.5t-37.5 -90.5t-90.5 -37.5v-212q0 -45 31.5 -76.5t76.5 -31.5h808q45 0 76.5 31.5t31.5 76.5v212q-53 0 -90.5 37.5t-37.5 90.5t37.5 90.5t90.5 37.5z
M960 203v-159q0 -18 -13 -31t-31 -13h-808q-18 0 -31 13t-13 31v159q57 20 92.5 70t35.5 111.5t-35.5 111t-92.5 69.5v159q0 18 13 31t31 13h808q18 0 31 -13t13 -31v-159q-57 -20 -92.5 -69.5t-35.5 -111t35.5 -111.5t92.5 -70zM735 384q13 0 22.5 9.5t9.5 22.5t-9.5 22.5
t-22.5 9.5h-162l169 169q9 9 9 22.5t-9 22.5t-22.5 9t-22.5 -9l-186 -186l-185 186q-9 9 -22.5 9t-23 -9.5t-9.5 -22.5t10 -23l168 -168h-161q-13 0 -22.5 -9.5t-9.5 -22.5t9.5 -22.5t22.5 -9.5h191v-64h-191q-13 0 -22.5 -9.5t-9.5 -22.5t9.5 -22.5t22.5 -9.5h191v-191
q0 -14 9.5 -23t23 -9t22.5 9t9 23v191h192q13 0 22.5 9.5t9.5 22.5t-9.5 22.5t-22.5 9.5h-192v64h192z" />
    <glyph glyph-name="uniE61C" unicode="&#xe61c;" 
d="M640 312l243 1q29 -5 43.5 -34.5t7 -62.5t-33.5 -46l-275 -2q-28 7 -43 28.5t-14.5 45t19.5 44.5t53 26zM185 655l466 177l45 -96l-425 -160h-49zM651 271q-13 0 -22.5 -9.5t-9.5 -23.5t9.5 -23.5t23 -9.5t23 10t9.5 23.5t-9.5 23t-23.5 9.5zM753 605l107 1q12 7 11 23.5
t-14 20.5l-120 -1q2 -7 8 -23t8 -21zM459 576l292 2q-27 69 -39 99q-43 -18 -253 -101zM62 545q1 -205 2 -583l3 -11l3 -6l3 -3l2 -2l3 -3l6 -3l803 4q14 7 19 22l2 190q30 16 43.5 51t1 72t-48.5 54l-1 210q1 7 -3.5 14t-12.5 8l-769 -3q6 21 17 32.5t39 14.5q-6 13 -20 43
q-41 -5 -63 -28.5t-29 -72.5z" />
    <glyph glyph-name="uniE61D" unicode="&#xe61d;" 
d="M512 184q-10 0 -16 6l-233 233q-7 7 -7 16.5t7 16.5t16.5 7t16.5 -7l216 -216l216 216q7 7 16.5 7t16.5 -7t7 -16.5t-7 -16.5l-233 -233q-6 -6 -16 -6z" />
    <glyph glyph-name="uniE61E" unicode="&#xe61e;" 
d="M339 13l30 -30l316 317l-316 317l-30 -30l286 -287z" />
    <glyph glyph-name="uniE61F" unicode="&#xe61f;" 
d="M830 629l-51 52l-267 -267l-267 267l-51 -52l318 -318zM512 122l-267 266l-51 -51l318 -319l318 319l-51 51z" />
    <glyph glyph-name="uniE620" unicode="&#xe620;" horiz-adv-x="1000" 
d="M164 696h297q9 -1 14.5 -6.5t7 -17.5t2 -20t0 -25.5t-0.5 -21.5v-165q0 -6 0.5 -21.5t0.5 -23.5t-1.5 -18.5t-5.5 -17t-11 -9.5t-20.5 -3.5t-32.5 0.5t-24 1h-157q-7 0 -23 -0.5t-24.5 -0.5t-20 2t-17.5 7.5t-7 14.5v302q6 18 23 23zM205 628v-215h214v218h-213
q-2 0 -1 -3zM563 696h298q20 -7 23 -27v-294q-5 -21 -21 -26q-9 -2 -21.5 -2.5t-29.5 0.5t-24 1h-153q-6 0 -23.5 -1t-30.5 -1t-22 3q-7 2 -11.5 9t-6 18.5t-2 20.5t0 25.5t0.5 22.5v154q0 7 -0.5 24.5t0 26.5t2 20.5t7 17.5t14.5 8zM604 628v-215h215v218h-214q-1 0 -1 -3z
M302 565q23 4 38.5 -8.5t15.5 -33.5q1 -27 -20.5 -40t-44.5 -1q-16 8 -21 26.5t4 35.5t28 21zM702 565q38 7 50 -25q10 -30 -10 -51q-15 -15 -40 -11q-21 3 -29.5 23t0 40t29.5 24zM459 -58h-294q-19 6 -24 24v301q6 18 20 22q8 3 21 3t30 -1t24 -1h152q7 0 24 1t30 1t22 -3
q8 -2 13 -8.5t6.5 -18.5t2 -20.5t-0.5 -25t-1 -22.5v-159q0 -6 1 -23.5t0.5 -25.5t-2.5 -20t-8 -17.5t-16 -6.5zM205 222v-215h214v218h-213q-2 0 -1 -3zM884 263v-84q-1 -7 -1 -45v-46h-213v49q-4 2 -32 1.5t-34 -0.5q-1 -16 -1 -97v-99h-39q-9 2 -15 8.5t-8 18t-2 20.5
t0.5 26t0.5 24v155q0 7 -1 24.5t-0.5 31t2.5 21.5q2 5 4.5 8.5t7 5.5t8 3t11 1.5t10.5 0.5h13h12h145v-133h67v67q0 55 1 66q17 1 30.5 0.5t23 -7.5t10.5 -20zM307 160q25 3 40.5 -16.5t5.5 -44.5q-8 -22 -32 -26t-41.5 12t-10 44t37.5 31zM742 -58h-72v40q0 33 1 38h71v-78
zM884 20v-51q-4 -20 -24 -27h-51v40q0 33 1 38h74z" />
    <glyph glyph-name="uniE621" unicode="&#xe621;" 
d="M140 264l356 -356q8 -8 19.5 -8t19.5 8q3 3 5 7l351 351q8 8 8 19t-8 19t-19.5 8t-19.5 -8l-309 -309v671q0 12 -8 20t-19.5 8t-19.5 -8t-8 -20v-672l-310 309q-8 8 -19 8t-19 -8t-8 -19.5t8 -19.5z" />
    <glyph glyph-name="uniE622" unicode="&#xe622;" 
d="M891 330l-357 356q-8 8 -19 8t-19 -8q-3 -3 -5 -7l-351 -351q-8 -8 -8 -19.5t8 -19.5t19 -8t19 8l310 309v-671q0 -11 8 -19t19.5 -8t19.5 8t8 19v673l309 -309q8 -8 19.5 -8t19.5 8t8 19t-8 20z" />
    <glyph glyph-name="uniE623" unicode="&#xe623;" 
d="M32 812h410q12 -1 19.5 -8.5t10 -24t3.5 -27.5t0 -34.5t-1 -29.5v-224q0 -8 1 -29t0.5 -32t-2.5 -25.5t-7.5 -23t-15 -12.5t-28.5 -4.5t-45 0.5t-32 1h-218q-9 0 -31.5 -1t-34 -0.5t-27 3t-24 10t-10.5 19.5v411q9 24 32 31zM88 720v-293h296v297h-294q-2 -1 -2 -4z
M583 812h411q26 -10 31 -37v-399q-6 -29 -29 -35q-12 -4 -29.5 -4t-41 1t-32.5 1h-211q-9 0 -33 -1.5t-42 -1t-30 4.5q-10 3 -16.5 12t-8.5 25t-2 28t0.5 34.5t0.5 30.5v209q0 10 -1 34t-0.5 36t3 27.5t10 24t20.5 10.5zM639 720v-293h297v297h-295q-2 -1 -2 -4zM223 634
q31 6 52.5 -11.5t22.5 -45.5q0 -36 -30 -53.5t-60 -2.5q-22 12 -29 37t5 48t39 28zM774 634q50 9 68 -32q14 -35 -8 -65q-20 -28 -60 -21q-29 5 -40.5 31.5t0 54t40.5 32.5zM440 -212h-407q-26 7 -33 32v409q8 25 28 30q12 3 29 3.5t40.5 -1t33.5 -1.5h211q9 0 32.5 1.5
t41.5 1.5t30 -4q11 -3 18 -12t9 -25t2.5 -28t-0.5 -34t-1 -30v-216q0 -9 0.5 -23.5t0.5 -24.5v-22q0 -13 -2.5 -21.5t-6 -17t-10.5 -12.5t-16 -5zM88 168v-292h296v296h-294q-2 0 -2 -4zM1025 224v-114q-2 -10 -1.5 -61.5t0.5 -62.5h-294v66q-6 2 -44 2h-47
q-2 -23 -1.5 -132.5t0.5 -133.5h-54q-13 2 -21 10.5t-10.5 24.5t-3 28t0.5 35.5t1 32.5v211q0 9 -1.5 33t-1 42t4.5 30q2 6 5.5 10.5t9.5 7.5t11 4.5t15 2t15 1t17.5 0t17.5 -0.5h199v-180h93q0 16 -0.5 91t1.5 89q23 1 42 0.5t32 -9.5t14 -27zM230 84q34 3 55 -23t9 -60
q-7 -18 -23.5 -28t-34.5 -8.5t-33.5 9.5t-23 26.5t-1.5 41.5q10 37 52 42zM830 -212h-100q1 9 0.5 53.5t1.5 52.5h98v-106zM1025 -106v-70q-5 -28 -33 -36h-70q0 9 -0.5 53.5t1.5 52.5h102zM1025 -106z" />
    <glyph glyph-name="uniE624" unicode="&#xe624;" 
d="M735 521q2 2 1 5t-5 3h-137v225q0 6 -4.5 10.5t-10.5 4.5h-134q-6 0 -10.5 -4.5t-4.5 -10.5v-225h-137q-4 0 -5 -3t1 -5l213 -197q4 -4 10 -4t10 4zM946 271l-133 102q-14 11 -31 11h-77l127 -128l-128 1l-64 -93h-257l-63 93l-127 -1l128 128h-79q-17 0 -31 -11
l-133 -102q-14 -11 -9 -28l54 -162q2 -7 8.5 -12t13.5 -5h735q7 0 13.5 5t8.5 12l53 162q5 17 -9 28z" />
    <glyph glyph-name="uniE625" unicode="&#xe625;" 
d="M512 -212q-159 0 -271.5 56t-112.5 136v108q0 -52 52 -91.5t139 -60t193 -20.5t193 20.5t139 60t52 91.5v-108q0 -80 -112.5 -136t-271.5 -56zM512 -20q-159 0 -271.5 56t-112.5 136v108q0 -52 52 -91.5t139 -60t193 -20.5t193 20.5t139 60t52 91.5v-108
q0 -80 -112.5 -136t-271.5 -56zM512 172q-159 0 -271.5 56t-112.5 136v108q0 -52 52 -91.5t139 -60t193 -20.5t193 20.5t139 60t52 91.5v-108q0 -80 -112.5 -136t-271.5 -56zM512 364q-159 0 -271.5 56t-112.5 136v64q0 80 112.5 136t271.5 56t271.5 -56t112.5 -136v-64
q0 -80 -112.5 -136t-271.5 -56z" />
    <glyph glyph-name="uniE626" unicode="&#xe626;" 
d="M759 627l-183 -312h144v-69h-168v-94h168v-70h-168v-138h-86v138h-174v70h174v94h-174v69h148l-181 312h97q127 -232 155 -295h1q10 26 51 104l104 191h92z" />
    <glyph glyph-name="uniE627" unicode="&#xe627;" 
d="M745 142v107h213v106h-213v107l-213 -160zM491 302l-214 160v-107h-213v-106h213v-107zM848 20q0 -24 -16.5 -40t-39.5 -16h-562q-23 0 -39.5 16t-16.5 40v56h-112v-56q0 -70 49.5 -119.5t118.5 -49.5h562q70 0 119 49.5t49 119.5v56h-112v-56zM792 750h-562
q-69 0 -118.5 -49.5t-49.5 -119.5v-49h112v49q0 23 16.5 39.5t39.5 16.5h562q23 0 39.5 -16.5t16.5 -39.5v-49h112v49q0 70 -49 119.5t-119 49.5z" />
    <glyph glyph-name="uniE628" unicode="&#xe628;" horiz-adv-x="1315" 
d="M1231 479zM1009 563q-12 18 -33 18h-40q-16 0 -27.5 -11.5t-11.5 -27.5v-237q0 -16 11.5 -27.5t27.5 -11.5h159q16 0 27.5 11.5t11.5 27.5v59q0 12 -6 22zM1095 305h-159v237h40l119 -178v-59zM1273 410l-159 236q-16 25 -42.5 39t-56.5 14h-158v79q0 49 -35 83.5
t-84 34.5h-594q-49 0 -84 -34.5t-35 -83.5v-433q0 -49 35 -84t84 -35v-118q0 -49 35 -83.5t84 -34.5h45q13 -51 55.5 -84.5t97 -33.5t97 33.5t56.5 84.5h209q13 -51 55.5 -84.5t97 -33.5t97 33.5t56.5 84.5h45q49 0 84 34.5t35 83.5v237q0 35 -20 65zM128 289q-16 0 -28 19
t-12 37v433q0 18 12 36.5t28 18.5h626q16 0 28 -18.5t12 -36.5v-433q0 -18 -12 -37t-28 -19h-626zM464 -63h-8q-37 0 -63.5 26t-26.5 63.5t26.5 63.5t63.5 26t63 -26t26 -64q0 -36 -24 -62.5t-57 -26.5zM984 -63h-8q-37 0 -63.5 26t-26.5 63.5t26.5 63.5t63.5 26t63 -26
t26 -64q0 -36 -24 -62.5t-57 -26.5zM1174 69h-45q-14 51 -56.5 84.5t-97 33.5t-97 -33.5t-55.5 -84.5h-209q-14 51 -56.5 84.5t-97 33.5t-97 -33.5t-55.5 -84.5h-45q-17 0 -28.5 11.5t-11.5 27.5v118h515q49 0 84 35t35 84v275h158q22 0 33 -17l159 -237q21 -31 21 -39v-211
l2 -8q0 -15 -19 -27t-37 -12z" />
    <glyph glyph-name="uniE629" unicode="&#xe629;" 
d="M592 640q54 0 91 33q38 31 38 78q0 45 -38 78t-91 33q-52 0 -91 -33q-38 -33 -38 -78q0 -47 38 -78q38 -33 91 -33zM627 -3q-42 0 -59 13q-17 12 -17 47q0 15 5 41q5 24 12 49l71 175q8 25 11 53q3 32 3 41q0 41 -60 89q-42 35 -120 35q-46 0 -92 -14q-50 -14 -102 -34
l-14 -55q5 3 17.5 3t20.5 2q23 6 43 6q5 0 15 0.5t14.5 0t11 -1t10.5 -2t7 -3.5q2 -2 3.5 -5t2.5 -6t1.5 -8t0.5 -8v-10v-11q0 -19 -5 -40q-2 -7 -2.5 -23t-3.5 -25l-54 -176q-7 -31 -10 -50q-4 -22 -4 -43q0 -54 44 -90q44 -35 122 -35q52 0 90 13q33 10 104 35l14 54
q-10 -4 -36 -11q-25 -6 -44 -6z" />
    <glyph glyph-name="uniE62A" unicode="&#xe62a;" 
d="M518 102q-10 11 -27.5 29.5t-61.5 74t-78 110t-61.5 128t-27.5 135.5q0 36 8.5 66.5t23.5 52t34 38.5t40.5 27.5t42.5 18.5t40.5 11.5t34.5 5.5t23 3h9q5 0 14.5 -0.5t36 -5t51 -12t54 -24t50.5 -39.5t36 -59.5t15 -82.5q0 -62 -26.5 -134t-64 -130.5t-76 -108t-64 -77
t-26.5 -27.5zM698 609q-13 58 -68 96q-1 0 -3.5 2t-3.5 2q-4 3 -17 9l-15 8q-1 0 -16 4q-16 4 -19 5q-19 3 -38 3v0q-19 0 -37 -3q-35 -6 -65 -23v-1q-10 -6 -22 -15q-1 -1 -3 -2.5t-3 -2.5q-3 -3 -12.5 -13t-10.5 -12t-3 -5t-3 -4q-8 -12 -11 -18q0 -2 -1 -4.5t-1 -3.5
q-6 -14 -8 -21q-3 -16 -3 -31q0 -44 19.5 -101t44 -101t56 -91t44 -63t19.5 -25q8 9 20 25t43.5 63t56 91t44 101t19.5 101q0 15 -3 30zM448 592q0 29 20.5 49.5t49.5 20.5t49.5 -20.5t20.5 -49.5t-20.5 -49.5t-49.5 -20.5t-49.5 20.5t-20.5 49.5zM821 312q-1 -2 -2 -6.5
t-3.5 -15.5t-3.5 -20t1 -17.5t8 -10.5q12 -4 35.5 2t40.5 14l18 8v-304l-188 -73q-61 -22 -69 -20q-6 1 -73 27.5t-132 48.5t-75 17t-74.5 -22.5t-123.5 -32.5l-58 -15v304q108 26 116 46q5 11 5 23t-6.5 23t-23 12t-45.5 -11q-77 -35 -116 -70v-373q0 -2 1 -4t4.5 -8.5
t7 -11t10 -11.5t13 -9.5t15.5 -4.5t19 2q20 7 84.5 30.5t117.5 42.5l54 20q249 -89 280 -93q28 -3 177 46.5t150 70.5q2 80 2 241t-2 179q-2 9 -34 5.5t-67.5 -12t-62.5 -17.5z" />
    <glyph glyph-name="uniE62B" unicode="&#xe62b;" 
d="M440 51q-8 3 -21 9t-47 25.5t-61.5 40.5t-55 54t-37.5 67t2 78t52 87q151 165 130 271q-4 23 -14 34q9 -1 23.5 -2.5t56.5 -10t80.5 -21.5t86.5 -39t83.5 -59t61.5 -84.5t30.5 -113.5t-19 -149t-77.5 -187h-84q5 5 11 14t18.5 34.5t16 48.5t-6.5 49t-39 44
q-5 3 -12.5 8.5t-24.5 23t-26 34t-6 38t24 39.5q-5 -1 -13.5 -2.5t-32 -10.5t-42.5 -22.5t-37 -39.5t-24 -59.5t4.5 -85t41.5 -113.5h-42z" />
    <glyph glyph-name="uniE62C" unicode="&#xe62c;" horiz-adv-x="2048" 
d="M1536 896h-1024q-139 0 -257 -68.5t-186.5 -186.5t-68.5 -257t68.5 -257t186.5 -186.5t257 -68.5h1024q139 0 257 68.5t186.5 186.5t68.5 257t-68.5 257t-186.5 186.5t-257 68.5zM512 -81q-95 0 -181 36.5t-148.5 99t-99 148.5t-36.5 181t36.5 181t99 148.5t148.5 99
t181 36.5t181 -36.5t148.5 -99t99 -148.5t36.5 -181t-36.5 -181t-99 -148.5t-148.5 -99t-181 -36.5z" />
    <glyph glyph-name="uniE62D" unicode="&#xe62d;" horiz-adv-x="2048" 
d="M0 384q0 -139 68.5 -257t186.5 -186.5t257 -68.5h1024q139 0 257 68.5t186.5 186.5t68.5 257t-68.5 257t-186.5 186.5t-257 68.5h-1024q-139 0 -257 -68.5t-186.5 -186.5t-68.5 -257zM1071 384q0 95 36.5 181t99 148.5t148.5 99t181 36.5t181 -36.5t148.5 -99t99 -148.5
t36.5 -181t-36.5 -181t-99 -148.5t-148.5 -99t-181 -36.5t-181 36.5t-148.5 99t-99 148.5t-36.5 181z" />
    <glyph glyph-name="uniE62E" unicode="&#xe62e;" 
d="M959 423q0 -57 -22 -108.5t-59.5 -88.5t-89 -59.5t-108.5 -22.5h-335q-56 0 -108 22.5t-89 59.5t-59.5 88.5t-22.5 108.5t22.5 108.5t59.5 89t89 59.5t108 22h335q57 0 108.5 -22t89 -59.5t59.5 -89t22 -108.5zM345 646q-45 0 -86 -17.5t-71.5 -47.5t-48 -71.5
t-17.5 -86.5t17.5 -86.5t48 -71.5t71.5 -47.5t86.5 -17.5t86.5 17.5t71 47.5t47.5 71.5t17.5 86.5t-17.5 86.5t-47.5 71.5t-71 47.5t-87 17.5z" />
    <glyph glyph-name="uniE62F" unicode="&#xe62f;" 
d="M816 798h-608q-9 0 -17.5 -1t-27 -6.5t-31.5 -16t-23.5 -33t-10.5 -53.5v-608q0 -84 80 -105l30 -5h608q22 0 40 6t29.5 16t19.5 21.5t12 23.5t6 21.5t2 15.5l1 6v608q0 31 -10.5 53.5t-23.5 33t-31.5 16t-27 6.5t-17.5 1zM870 80v-6q0 -3 -3 -12.5t-8.5 -17t-16.5 -13.5
t-26 -6h-608q-2 0 -5.5 0.5t-13 3.5t-17 8t-13.5 16.5t-6 26.5v608q0 54 55 54h608q9 0 15 -1t17 -5.5t16.5 -16.5t5.5 -31v-608zM319 522h386v55h-386v-55zM319 356h386v56h-386v-56zM319 191h386v55h-386v-55z" />
    <glyph glyph-name="uniE630" unicode="&#xe630;" 
d="M508 -214q-8 9 -21.5 24.5t-53 63.5t-75.5 95.5t-80 112t-75.5 121t-53 115.5t-21.5 102q0 103 51 190.5t138.5 138.5t191 51t191 -51t138.5 -138.5t51 -190.5q0 -59 -39.5 -146t-95.5 -169.5t-111.5 -155.5t-95 -118.5t-39.5 -44.5zM508 751q-90 0 -166.5 -45
t-120.5 -122.5t-44 -168.5q0 -52 35.5 -131t79.5 -146t101 -141.5t79.5 -101t35.5 -41.5q14 15 36 41.5t79.5 101t101 141.5t79.5 146t36 131q0 91 -44.5 168.5t-121 122.5t-166.5 45zM508.5 293q-65.5 0 -112 46.5t-46.5 112t46.5 112t112 46.5t112 -46.5t46.5 -112
t-46.5 -112t-112 -46.5zM508.5 566q-48.5 0 -83 -34.5t-34.5 -83t34.5 -82.5t83 -34t82.5 34t34 82.5t-34 83t-82.5 34.5z" />
    <glyph glyph-name="uniE631" unicode="&#xe631;" 
d="M734 255q51 82 51 187q0 129 -79 218.5t-191 89.5q-73 0 -135 -42t-98.5 -113t-36.5 -153q0 -105 51 -187q-108 -49 -169.5 -133t-61.5 -189v-25q0 -24 17 -41t41 -17h778q24 0 41 17t17 41v25q5 103 -57.5 187.5t-167.5 134.5zM515 667q73 0 126.5 -67t53.5 -158.5
t-53.5 -158.5t-126.5 -67t-126.5 67t-53.5 158.5t53.5 158.5t126.5 67zM155 -67q0 81 56.5 149t149.5 102q67 -58 154 -58t154 58q93 -34 149.5 -102t56.5 -149h-720z" />
    <glyph glyph-name="uniE632" unicode="&#xe632;" 
d="M204 812q27 -3 41 -22q9 -12 68.5 -102.5t70.5 -107.5q20 -31 -5 -78q-10 -19 -53 -94q43 -63 137 -157q108 -108 166 -143q7 -4 9 -12.5t-2 -15.5t-12.5 -9.5t-15.5 2.5q-59 35 -174 150t-150 174q-6 10 0 20q50 87 59 104q13 26 6 37q-10 17 -69.5 107t-67.5 101
q-3 5 -13.5 5t-25.5 -8q-36 -25 -79 -67q-53 -50 -53 -67v-1q2 -66 40 -146q73 -155 265 -347t347 -266q80 -37 147 -39v-1q17 0 68 54q41 43 66 78q9 16 8.5 26t-5.5 14q-12 8 -102.5 68t-104.5 69q-9 6 -31 -4q-3 -1 -6 -3q-8 -4 -16 -1.5t-12 10t-1.5 15.5t10.5 12
q4 3 9 5q41 18 68 1q15 -9 105.5 -69t104.5 -70q20 -14 22 -42q1 -3 1 -6q0 -25 -17 -48q-26 -39 -70 -84q-64 -67 -98 -65h-1q-75 2 -162 43q-162 77 -359 274t-273 358q-42 88 -44 163v1q-1 34 65 98q46 43 84 70q26 18 55 16zM204 812z" />
    <glyph glyph-name="uniE633" unicode="&#xe633;" 
d="M916 345h-358v358q0 18 -13 31.5t-31.5 13.5t-32 -13.5t-13.5 -31.5v-358h-358q-18 0 -31 -13t-13 -32t13 -32t31 -13h358v-358q0 -18 13.5 -31.5t32 -13.5t31.5 13.5t13 31.5v358h358q19 0 32 13t13 32t-13 32t-32 13zM916 345z" />
    <glyph glyph-name="uniE634" unicode="&#xe634;" 
d="M735 -212h-446q-36 0 -62.5 26t-26.5 63v846q0 37 26.5 63t62.5 26h446q37 0 63 -26t26 -63v-846q0 -37 -26.5 -63t-62.5 -26zM779 723q0 18 -13 31t-31 13h-446q-18 0 -31 -13t-13 -31v-67h534v67zM779 612h-534v-512h534v512zM779 55h-534v-178q0 -18 13 -31t31 -13
h446q18 0 31 13t13 31v178zM512 -123q-28 0 -47.5 19.5t-19.5 47.5t19.5 47.5t47.5 19.5t47.5 -20t19.5 -47.5t-19.5 -47t-47.5 -19.5z" />
    <glyph glyph-name="uniE635" unicode="&#xe635;" 
d="M212 832h408q14 0 25 -10l249 -249q10 -12 10 -25v-1v-519q0 -38 -27 -65h-1q-27 -27 -64 -27h-600q-37 0 -65 27q-27 28 -27 65v712q0 37 27 65q27 27 65 27zM311 147h346q9 0 15 6t6 14.5t-6 14.5t-15 6h-346q-8 0 -14 -6t-6 -14.5t6 -14.5t14 -6zM311 292h236
q9 0 14.5 6t5.5 14q0 9 -5.5 15t-14.5 6h-236q-8 0 -14 -6t-6 -15q0 -8 6 -14t14 -6zM311 437h401q9 0 15 6t6 15t-6 15t-15 6h-401q-8 0 -14 -6t-6 -14.5t6 -15t14 -6.5zM600 763h-388q-10 0 -16 -7q-7 -7 -7 -16v-712q0 -9 7 -16q6 -7 16 -7h600q9 0 16 7t7 16v500h-157
q-33 0 -56 23l-1 1q-21 22 -21 54v157zM800 569l-159 159v-122q0 -14 10 -25l1 -1q11 -11 26 -11h122z" />
    <glyph glyph-name="uniE636" unicode="&#xe636;" 
d="M796 2q0 -14 -10 -24t-24 -10h-639q-14 0 -24 10t-10 24v775q0 15 10 25t24 10h639q14 0 24 -10t10 -25h41q0 32 -22 54t-53 22h-639q-31 0 -53 -22t-22 -54v-775q0 -31 22 -53t53 -22h639q31 0 53 22t22 53v169h-41v-169zM1017 695l-4 4q-27 22 -61 38q-14 7 -28 7
q-28 0 -44 -22l-36 -53h-1l-250 -396q-1 -2 -2 -5q0 -1 -0.5 -1t-0.5 -1l-28 -149q-3 -13 8 -21q6 -3 12 -3t11 3l126 81l2 2l1 1l2 2l1 1l263 396q28 41 37 55q16 27 -8 61zM913 698q1 1 3.5 2t7.5 2t10 -2q24 -12 51 -31q6 -10 5 -14q-7 -10 -28 -42l-73 50zM939 579
l-236 -356l-65 45l228 361zM611 156l14 72l46 -33zM696 644.5q0 8.5 -6 14.5t-14 6h-513q-9 0 -15 -6t-6 -14.5t6 -14.5t15 -6h513q8 0 14 6t6 14.5zM550 440.5q0 8.5 -6 14.5t-14 6h-367q-9 0 -15 -6t-6 -14.5t6 -14.5t15 -6h367q8 0 14 6t6 14.5zM163 257q-9 0 -15 -6
t-6 -14.5t6 -14.5t15 -6h220q9 0 15 6t6 14.5t-6 14.5t-15 6h-220z" />
    <glyph glyph-name="uniE637" unicode="&#xe637;" 
d="M286 285l-46 -45l272 -272l272 272l-46 45l-226 -226zM286 605l-46 -45l272 -272l272 272l-46 45l-226 -226z" />
    <glyph glyph-name="uniE638" unicode="&#xe638;" 
d="M898 800q-20 8 -44 8q-52 0 -80 -38l-102 -115q-3 -3 -6 -8t-7.5 -19t-4.5 -28.5t7.5 -36.5t24.5 -44q6 -8 14.5 -20t21.5 -46t15 -69t-16.5 -83.5t-61.5 -93.5q-4 -6 -13 -15t-34 -31t-51 -39t-62 -31t-69 -14q-65 0 -118 53q-33 43 -79 43q-32 0 -62 -25l-135 -114
l-2 -2q-13 -14 -21.5 -34t-5.5 -49.5t26 -55.5q7 -8 18.5 -18.5t36 -28.5t66.5 -32.5t92 -20.5q28 -5 66 -5q162 0 317 95q9 6 23.5 16t50 39t68.5 59.5t73.5 76.5t72 92t56.5 104t33 114q1 9 3.5 23.5t6 50.5t3.5 70.5t-5.5 78t-18 78.5t-37.5 67t-60 48zM955 392
q-10 -70 -51 -145t-87 -127.5t-101.5 -102t-79 -66.5t-34.5 -25q-142 -87 -290 -87q-32 0 -57 5q-38 4 -70.5 14.5t-51.5 20.5t-34 21.5t-19 16t-6 7.5l-2 3q-14 14 -14.5 30.5t3.5 24.5t10 14l133 113q15 13 29 13q22 0 39 -23l3 -3q68 -70 155 -70q40 0 82 15.5t71.5 34.5
t58.5 43.5t39 35.5t16 18q37 39 59 81.5t27.5 77.5t1.5 70.5t-12.5 60t-20.5 47t-18 30.5t-9 11q-14 19 -17.5 37t-1.5 24t5 10l103 116q14 19 40 19q4 0 7.5 -0.5t6.5 -1t5.5 -1t3.5 -0.5h1q28 -14 47 -41t27.5 -58t12.5 -69.5t3 -69t-4.5 -62.5t-5 -43t-3.5 -19z" />
    <glyph glyph-name="uniE639" unicode="&#xe639;" 
d="M789 183q19 0 25 6t6 24t-20 34l-2 2q-64 49 -110 67q39 34 61.5 82t22.5 102q0 100 -71 171t-171.5 71t-171.5 -71t-71 -171q0 -54 22.5 -102t62.5 -82q-126 -49 -204.5 -161t-78.5 -250v-1q0 -42 35 -42q17 0 21.5 10t4.5 32q0 59 14 113.5t44.5 103t74 83.5t107 55
t140.5 19q61 -1 124.5 -23t105.5 -57q14 -11 26 -15h3zM530 325q-88 0 -137 52.5t-49 122.5q0 69 52 127t134 58q49 0 86 -17t58 -44.5t31.5 -59t10.5 -65.5q0 -67 -54.5 -121.5t-131.5 -52.5v0zM611 66q0 -17 12 -26.5t32 -9.5h235q19 0 31.5 9.5t12.5 26.5q0 34 -44 34
h-235q-44 0 -44 -34v0zM890 -77h-235q-44 0 -44 -33t44 -33h235q44 0 44 33t-44 33v0zM890 -77z" />
    <glyph glyph-name="uniE63A" unicode="&#xe63a;" 
d="M853 -65h-682q-47 0 -80.5 33t-33.5 80v683q0 47 33.5 80.5t80.5 33.5h170q47 0 80.5 -33.5t33.5 -80.5h398q47 0 80.5 -33.5t33.5 -80.5v-569q0 -47 -33.5 -80t-80.5 -33zM910 617q0 23 -16 40t-41 17h-455v57q0 22 -16 39.5t-41 17.5h-170q-23 0 -40 -16t-17 -41v-171
h796v57zM910 503h-796v-455q0 -22 16 -39.5t41 -17.5h682q23 0 40 16.5t17 40.5v455z" />
    <glyph glyph-name="uniE63B" unicode="&#xe63b;" 
d="M78 562q293 159 431 234q7 5 15 1q41 -23 430 -235q2 -1 9 -5q-3 -2 -12 -6.5t-13 -7.5q-289 -157 -414 -225q-8 -5 -14 -1q-81 44 -434 236q-1 1 -3 2t-3 2q7 5 8 5zM78 393q62 34 66 36q8 4 16 0q50 -27 166.5 -90.5t179.5 -98.5q10 -5 20 0q61 33 177 96.5t169 92.5
q9 4 17 0l66 -36q1 -1 2 -1l3 -2q2 -1 3 -2q-1 -1 -2.5 -2t-2.5 -2h-2q-356 -193 -433 -236q-7 -3 -13 0q-150 82 -433 236l-7 4q1 1 4 2.5t4 2.5zM964 219q-103 -55 -109 -59q-228 -124 -330 -180q-9 -4 -17 0q-140 77 -436 237q0 1 -1.5 1t-1.5 1v1q7 3 8 4q50 26 67 36
q8 5 16 0q60 -33 176 -96t172 -93q8 -5 17 0q58 31 174 94.5t174 94.5q8 5 15 0q19 -10 68 -36q1 -1 8 -4v-1z" />
    <glyph glyph-name="uniE63C" unicode="&#xe63c;" 
d="M346 345q-1 -2 -1 -3l-45 -165q-5 -16 7 -28q8 -8 20 -8q3 0 7 1l164 45h1q3 0 5 2l439 439q21 20 21 50q0 35 -26 60l-41 42q-26 26 -61 26q-30 0 -50 -21l-439 -439h-1v-1zM900 671l-43 -43l-71 71l43 43q5 6 13.5 5t14.5 -7l41 -41q7 -7 7 -16q0 -7 -5 -12zM424 338
l317 317l71 -72l-316 -317zM367 209l22 84l62 -61zM928.5 497q-12.5 0 -21.5 -9t-9 -21v-410q0 -16 -11.5 -27.5t-27.5 -11.5h-693q-16 0 -27.5 11.5t-11.5 27.5v669q0 16 11.5 27.5t27.5 11.5h446q13 0 22 8.5t9 21t-9 21.5t-22 9h-450q-40 0 -67.5 -28t-27.5 -67v-678
q0 -39 27.5 -67t67.5 -28h702q39 0 67 28t28 67v415q0 12 -9 21t-21.5 9z" />
    <glyph glyph-name="uniE63D" unicode="&#xe63d;" horiz-adv-x="1346" 
d="M1032 881h-711q-59 0 -100.5 -42.5t-41.5 -102.5v-691q0 -61 41.5 -103.5t100.5 -42.5h711q59 0 100.5 42.5t41.5 103.5v691q0 60 -41.5 102.5t-100.5 42.5zM408 820h535v-360h-535v360zM1113 45q0 -35 -23.5 -60t-57.5 -25h-711q-34 0 -57.5 25t-23.5 60v691
q0 35 23.5 59.5t57.5 24.5h27v-390q0 -13 8.5 -21.5t21.5 -8.5h595q13 0 22 8.5t9 21.5v390h28q34 0 57.5 -24.5t23.5 -59.5v-691zM803.5 732q-12.5 0 -21.5 -8.5t-9 -21.5v-170q0 -13 9 -21.5t21.5 -8.5t21.5 8.5t9 21.5v170q0 13 -9 21.5t-21.5 8.5z" />
    <glyph glyph-name="uniE63E" unicode="&#xe63e;" 
d="M793 367l44 36q25 22 25 55t-25 54l-59 50q-10 8 -9 21l7 76q3 33 -20.5 56.5t-56.5 20.5l-76 -6q-14 -1 -22 9l-49 58q-20 24 -54.5 24t-54.5 -24l-49 -58q-9 -10 -22 -9l-76 6q-33 4 -57 -20q-23 -24 -20 -57l6 -76q1 -13 -9 -21l-58 -50q-25 -21 -25 -54t25 -55
l58 -49h1v-1l-204 -204l179 -24l24 -178l202 201l25 -29q21 -26 54.5 -26t54.5 26l38 45l218 -217l24 178l179 24zM233 166l-121 17l110 110l-3 -36q-3 -34 20 -57q24 -24 57 -21l76 7q7 0 14 -4l-137 -137zM517 148q-8 -8 -20 -8.5t-19 8.5l-49 59q-22 25 -55 25h-6l-76 -7
q-12 0 -20 8t-7 20l6 76q3 37 -25 60l-58 50q-9 7 -9 19t9 19l58 49q28 24 25 61l-6 76q-1 12 7 20t20 8l76 -7q37 -3 61 25l49 59q7 8 19 8t20 -8l49 -59q24 -28 61 -25l76 7q12 0 20 -8t7 -20l-7 -76q-3 -37 26 -61l58 -49q9 -7 9 -19t-9 -19l-58 -50q-29 -23 -26 -60
l7 -76q1 -12 -7 -20t-20 -8l-77 7q-36 3 -60 -25zM791 166l-16 -121l-140 140l64 -6q33 -3 56.5 20.5t20.5 57.5l-6 68l142 -142z" />
    <glyph glyph-name="uniE63F" unicode="&#xe63f;" 
d="M1009 -95l-67 535q-2 39 -31 67t-69 28h-135v67q0 83 -59 142.5t-142 59.5t-142.5 -59.5t-59.5 -142.5v-67h-134q-40 0 -69 -28t-31 -67l-67 -535q-1 -4 -1 -8q0 -42 29.5 -71.5t71.5 -29.5h806q41 0 71 29.5t30 71.5q0 4 -1 8zM372 602q0 56 39 95t95 39t95 -39t39 -95
v-67h-268v67zM909 -136h-806q-14 0 -24 9.5t-10 23.5l68 537q0 14 9.5 24t23.5 10h672q14 0 23.5 -10t9.5 -24l67 -537q0 -14 -9.5 -23.5t-23.5 -9.5zM674 401q-14 0 -24 -10t-10 -24v-33q0 -14 10 -24t24 -10t23.5 10t9.5 24v33q0 14 -9.5 24t-23.5 10zM338 401
q-14 0 -24 -10t-10 -24v-33q0 -14 10 -24t24 -10t24 10t10 24v33q0 14 -10 24t-24 10z" />
    <glyph glyph-name="uniE640" unicode="&#xe640;" horiz-adv-x="1032" 
d="M0 222v395q0 20 9 29t30 9h789q21 0 30 -9t9 -30v-789q0 -21 -9 -30t-29 -9h-791q-20 0 -29 9t-9 29v396zM434 592h-356q-11 0 -13 -2t-2 -13v-710q0 -12 2 -14t13 -2h711q11 0 13 2t2 14v710q0 11 -2 13t-12 2h-356zM598 812h394q21 0 30.5 -9.5t9.5 -30.5v-787
q0 -22 -9.5 -31t-30.5 -9q-49 -1 -59 0q-15 0 -24.5 8.5t-9.5 22.5q0 13 9 22t24 10h28q10 -1 9 9v8v707q0 13 -2 15t-14 2h-710q-12 0 -14 -2t-2 -14q0 -15 -1 -17q0 -11 -8 -19.5t-19 -10t-21 5t-12 17.5q-7 40 0 80q3 21 28 23h13h391zM384 15q-11 0 -19 8q-27 24 -40 37
q-74 69 -126 118q-13 13 -8 29q5 17 23 20q13 3 25 -8q3 -3 22.5 -21t30.5 -28q61 -58 82 -78q8 -8 15 1q61 72 176 209q60 71 84 100q8 9 19.5 10.5t21 -5.5t11 -18.5t-6.5 -21.5l-66 -78q-97 -116 -177 -212q-8 -8 -44 -51q-9 -11 -23 -11z" />
    <glyph glyph-name="uniE641" unicode="&#xe641;" 
d="M961 69h-81q25 41 41 87q24 69 24 143q0 89 -34 170q-33 79 -93.5 139.5t-139.5 93.5q-81 34 -170 34q-75 0 -145 -25q-10 -3 -14.5 -12.5t-1 -19.5t13 -14.5t19.5 -1.5q62 22 128 22q78 0 148.5 -29t125 -84t83.5 -125t29 -148q0 -65 -21 -126q-14 -40 -36 -76l-26 74
q-3 10 -12.5 14.5t-19.5 1t-14.5 -13t-1.5 -19.5l41 -119q2 -6 7 -10q7 -8 18 -8l132 1q11 0 18.5 7.5t7 18t-8 18t-17.5 7.5zM676 -49q-79 -38 -168 -38q-77 0 -147.5 29.5t-125 84t-83.5 125t-29 147.5q0 129 76 231l34 -93q6 -17 24 -17q4 0 9 1q10 4 14.5 13.5t0.5 19.5
l-46 128q-7 20 -27 17q-3 1 -6 1l-137 -1q-11 0 -18.5 -7.5t-7.5 -18t7.5 -18t18.5 -7.5h84q-78 -112 -78 -249q0 -89 35 -170q33 -78 93.5 -138.5t138.5 -93.5q81 -35 170 -35q100 0 190 43q9 5 12.5 15t-1 19.5t-14.5 13t-19 -1.5z" />
    <glyph glyph-name="uniE642" unicode="&#xe642;" 
d="M898 2h-99v-99q0 -13 -9 -21.5t-21 -8.5t-21 8.5t-9 21.5v99h-99q-12 0 -21 8.5t-9 21t9 21t21 8.5h99v100q0 12 9 20.5t21 8.5t21 -8.5t9 -20.5v-100h99q12 0 21 -8.5t9 -21t-9 -21t-21 -8.5zM769 255q-12 0 -21 8.5t-9 21.5v551h-324v-1v-230q0 -13 -8.5 -21.5
t-21.5 -8.5h-229v-515h359q12 0 21 -9t9 -21t-9 -21t-21 -9h-389q-12 0 -21 9t-9 21v624q0 7 3 13q1 3 4 6l207 212l2 2l2 3q4 4 11 4q4 1 7 1h437q12 0 21 -8.5t9 -21.5v-580q0 -13 -9 -21.5t-21 -8.5zM345 836l-189 -194v-8h199v201v1h-10z" />
    <glyph glyph-name="uniE643" unicode="&#xe643;" 
d="M788 423h-184q-22 0 -37.5 15.5t-15.5 37.5v184q0 98 69.5 167t167 69t167 -69t69.5 -167t-69.5 -167.5t-166.5 -69.5zM926.5 798.5q-57.5 57.5 -139 57.5t-139 -57.5t-57.5 -138.5v-184q0 -5 4 -9t9 -4h184q81 0 138.5 57.5t57.5 139t-57.5 139zM236 -128
q-98 0 -167 69.5t-69 167t69.5 167t166.5 69.5h184q22 0 37.5 -15.5t15.5 -37.5v-184q0 -97 -69.5 -166.5t-167.5 -69.5zM433 292q0 5 -4 9t-9 4h-184q-81 0 -138.5 -57.5t-57.5 -139t57.5 -139t139 -57.5t139 57.5t57.5 138.5v184zM420 423h-184q-98 0 -167 69.5t-69 167.5
t69.5 167t167 69t167 -69t69.5 -167v-184q0 -22 -15.5 -37.5t-37.5 -15.5zM433 660q0 81 -57.5 138.5t-139 57.5t-139 -57.5t-57.5 -139t57.5 -139t138.5 -57.5h184q5 0 9 4t4 9v184zM604 345h184q97 0 166.5 -69.5t69.5 -167t-69.5 -167t-167 -69.5t-167 69.5t-69.5 166.5
v184q0 22 15.5 37.5t37.5 15.5zM591 108q0 -81 57.5 -138.5t139 -57.5t139 57.5t57.5 139t-57.5 139t-138.5 57.5h-184q-5 0 -9 -4t-4 -9v-184z" />
    <glyph glyph-name="uniE644" unicode="&#xe644;" 
d="M194 139l51 -52l267 267l267 -267l51 52l-318 318zM512 646l267 -266l51 51l-318 319l-318 -319l51 -51z" />
    <glyph glyph-name="uniE645" unicode="&#xe645;" 
d="M848 640h-80v128h-512v-128h-80q-46 0 -79 -28t-33 -81v-248q0 -54 34 -88.5t78 -34.5h80v-224h512v224h80q43 0 77.5 31t34.5 76v264q0 51 -33.5 80t-78.5 29zM736 -32h-448v352h448v-352zM736 640h-448v96h448v-96zM832 512h-34v32h34v-32zM320 256h384v-32h-384v32z
M320 160h384v-32h-384v32zM320 64h384v-32h-384v32z" />
    <glyph glyph-name="uniE646" unicode="&#xe646;" 
d="M285 582v198q0 13 -9.5 22.5t-23 9.5t-22.5 -9.5t-9 -22.5v-198q-29 -10 -46.5 -34.5t-17.5 -55.5t17.5 -55.5t46.5 -34.5v-582q0 -13 9 -22.5t22.5 -9.5t23 9.5t9.5 22.5v582q28 10 46 34.5t18 55.5t-18 55.5t-46 34.5zM253 444q-20 0 -34 14t-14 34t14 34t34 14t34 -14
t14 -34t-14 -34t-34 -14zM544 182v598q0 13 -9.5 22.5t-22.5 9.5t-22.5 -9.5t-9.5 -22.5v-598q-28 -10 -46 -34.5t-18 -55.5t18 -55.5t46 -34.5v-182q0 -13 9.5 -22.5t22.5 -9.5t22.5 9.5t9.5 22.5v182q28 10 46 34.5t18 55.5t-18 55.5t-46 34.5zM512 44q-20 0 -34 14
t-14 34t14 34t34 14t34 -14t14 -34t-14 -34t-34 -14zM867 412q0 31 -17.5 55.5t-46.5 34.5v278q0 13 -9 22.5t-22.5 9.5t-23 -9.5t-9.5 -22.5v-278q-28 -10 -46 -34.5t-18 -55.5t18 -55.5t46 -34.5v-502q0 -13 9.5 -22.5t23 -9.5t22.5 9.5t9 22.5v502q29 10 46.5 34.5
t17.5 55.5zM771 364q-20 0 -34 14t-14 34t14 34t34 14t34 -14t14 -34t-14 -34t-34 -14z" />
    <glyph glyph-name="uniE647" unicode="&#xe647;" horiz-adv-x="1363" 
d="M223 569h531v-99h-531v99zM223 417h354v-99h-354v99zM223 267h240v-99h-240v99zM1290 239q-75 58 -175 133q-5 4 -56.5 43t-77.5 59v252q0 35 -25 59.5t-60 24.5h-750q-35 0 -60 -24.5t-25 -59.5v-749q0 -35 25 -60.5t60 -25.5h347v-1v-2q0 -2 -1 -6v1l3 6q-5 -10 -5 -19
v-19q0 -37 6 -48q8 -18 29.5 -15t25.5 22v1l3 6l7 14t16 30q8 14 18 30h301q30 0 53 18.5t29 47.5l1 1h1l1 1l1 1l1 1h1l1 1l1 1l1 1h1l1 1l1 1l1 1h1l1 1l1 1l1 1h1l1 1l1 1l1 1h1l1 1l1 1l1 1h1l1 1l1 1l1 1h1l1 1l1 1h1l1 1l1 1l1 1h1l1 1l1 1l1 1h1l1 1l1 1l1 1h1l1 1
l1 1l1 1h1l1 1l1 1l1 1h1l1 1l1 1l1 1h1l1 1l1 1h1l1 1l1 1l1 1h1l1 1l1 1l1 1h1l1 1l1 1l1 1h1l1 1l1 1l1 1h1l1 1l1 1l1 1h1l1 1l1 1l1 1h1l1 1l1 1h1l1 1l1 1l1 1h1l1 1l1 1l1 1h1l1 1l1 1l1 1h1l1 1l1 1l1 1h1l1 1l1 1l1 1h1l1 1l1 1l1 1h1l1 1l1 1l1 1h1l1 1l1 1h1l1 1
l1 1l1 1h1l1 1l1 1l1 1h1l1 1l1 1l1 1h1l1 1l1 1l1 1h1l1 1l1 1l1 1h1l1 1l1 1l1 1h1l1 1l1 1h1l1 1l1 1l1 1h1l1 1l1 1l1 1h1l1 1l2 1l1 1h1l1 1l1 1l1 1h1l1 1l1 1l1 1h1l1 1l1 1l1 1h1l1 1l1 1l1 1h1l1 1l1 1l1 1h1l1 1l1 1l1 1h1l1 1l1 1h1l1 1l1 1l1 1h1l1 1l1 1l1 1h1
l1 1l1 1l1 1h1l1 1l1 1l1 1h1l1 1l1 1l1 1h1l1 1l1 1l1 1h1l1 1l1 1l1 1h1l1 1l1 1h1l1 1l1 1l1 1h1l1 1l1 1l1 1h1l1 1l1 1l1 1h1l1 1l1 1l1 1h1l1 1l1 1l1 1h1l1 1l1 1l1 1h1l1 1l1 1h1l1 1l1 1l1 1h1l1 1l1 1l1 1h1l1 1l1 1l1 1h1l1 1l1 1l1 1h1l1 1l1 1l1 1h1l1 1l1 1
l1 1h1l1 1l1 1l1 1h1l1 1l1 1h1l1 1l1 1l1 1h1l1 1l1 1l1 1h1l1 1l1 1l1 1h1l1 1l1 1l1 1h1l1 1l1 1l1 1h1l1 1l1 1l1 1h1l1 1l1 1h1l1 1l1 1l1 1h1l1 1l1 1l1 1h1l1 1l1 1l1 1q14 11 14 26t-14 25zM502 -28q-2 -13 -4 -30h-310q-31 0 -53.5 22.5t-22.5 53.5v666
q0 31 22.5 53t53.5 22h666q32 0 54 -21.5t22 -53.5v-172h-10h-4q-13 0 -22 -8.5t-9 -20.5v-122q-33 -3 -50 -6q-32 -6 -75 -24q-43 -17 -71 -36q-31 -20 -59 -48q-103 -105 -128 -275zM883 -52q-14 -6 -29 -6h-223q7 9 18 21q21 25 44 46q5 4 12 10l4 4l5 4q12 9 26 18
q11 7 26 14q13 7 26 11.5t29 8.5q13 3 29 4q13 1 31 0q2 0 5 -1q-1 -44 -3 -134zM960 17h-16l2 90q0 10 -6.5 18.5t-15.5 10.5q-42 8 -71 6q-39 -1 -74 -13q-63 -21 -123 -74q-47 -40 -94 -107q-2 -2 -4 -6v3v3q4 32 15 75q5 17 11 35q3 7 6 16l3 9q1 1 2 4q1 1 1 2
q14 33 34 63q17 26 43 52q11 12 25 24q2 2 6 5l1 1l2 2q7 5 17 11q13 9 30 17q14 7 33 14q42 16 76 21l1 1h1h6q6 1 15 1q12 1 29 3q13 1 21.5 9t8.5 21v92q27 -20 75 -56.5t62 -46.5q92 -70 144 -109q-155 -115 -266 -197z" />
    <glyph glyph-name="uniE648" unicode="&#xe648;" 
d="M856 752h-443q-41 0 -69.5 -29t-28.5 -70v-74h-148q-41 0 -69.5 -28.5t-28.5 -69.5v-517q0 -41 28.5 -69.5t69.5 -28.5h517q41 0 69.5 28.5t28.5 69.5v148h74q41 0 70 28.5t29 69.5v443q0 41 -29 70t-70 29zM905 210q0 -20 -14 -34.5t-35 -14.5h-74v256l-49 -49v-404
q0 -20 -14.5 -34.5t-34.5 -14.5h-517q-20 0 -34.5 14.5t-14.5 34.5v517q0 20 14.5 34.5t34.5 14.5h404l49 49h-256v74q0 21 14.5 35t34.5 14h443q21 0 35 -14t14 -35v-443zM741 572l-401 -401l1 168q0 10 -7.5 17t-17.5 7t-17 -7t-7 -17l-2 -227q0 -10 7.5 -17.5t17.5 -7.5
q4 0 8 2h219q10 0 17 7t7 17t-7.5 17t-17.5 7l-165 1l400 399q7 7 7 17t-7.5 17.5t-17.5 7.5t-17 -7z" />
    <glyph glyph-name="uniE649" unicode="&#xe649;" 
d="M931 254q-13 0 -23 35q-22 74 -105 139.5t-169 74.5v-1q0 -48 -36 -71q-18 -11 -38 -11q-24 0 -43 15l-175 138q-32 24 -32 63.5t31 63.5l176 139q2 2 4 3q19 10 38 10q21 0 38 -11q30 -18 36 -61v-3q1 -3 1 -5v-7q88 -14 168.5 -73t129 -144t48.5 -171q0 -50 -14 -97
q-4 -12 -14 -20.5t-21 -5.5zM561 769l-1 1q0 6 -2 9l-172 -136q-3 -2 -3 -6t3 -6l174 -138v9v38q0 15 10 25.5t24 11.5q83 6 167 -40.5t142 -120.5q-18 103 -111.5 189t-196.5 92q-15 1 -25 11.5t-10 24.5v36h1zM716 0h-582q-55 0 -94.5 39.5t-39.5 94.5v628q0 55 39.5 94.5
t94.5 39.5h279v-77h-279q-23 0 -40 -17t-17 -40v-628q0 -24 17 -40.5t40 -16.5h582q24 0 41 16.5t17 40.5v223h77v-223q-1 -55 -40 -94.5t-95 -39.5zM128 386h409v-66h-409v66zM128 255h327v-65h-327v65z" />
    <glyph glyph-name="uniE64A" unicode="&#xe64a;" 
d="M482 550q-70 -34 -101 -105q-4 -10 0 -20t14 -14q5 -3 10 -3q17 0 24 16q23 53 75 78q10 5 13.5 15t-1 20t-14.5 13.5t-20 -0.5zM482 550zM751 389q-11 0 -18.5 -7.5t-7.5 -18.5q0 -64 -45.5 -109t-108.5 -45q-11 0 -19 -7.5t-8 -18.5t8 -18.5t19 -7.5q85 0 145.5 60.5
t60.5 145.5q0 11 -7.5 18.5t-18.5 7.5zM751 389zM928 43l-119 119q31 37 50 80q24 59 24 123t-24 122q-24 56 -67.5 99.5t-99.5 67.5q-59 25 -123 25t-122 -25q-57 -24 -100 -67.5t-67 -99.5q-25 -58 -25 -122t25 -123q23 -56 66.5 -99.5t100.5 -67.5q58 -25 122 -25t123 25
q44 19 80 50l119 -119q8 -8 19 -8t18.5 8t7.5 19t-8 18zM569 103q-108 0 -185 76.5t-77 185t77 185.5t185.5 77t185 -77t76.5 -185.5t-77 -185t-185 -76.5zM569 103zM359 50h-147q-25 0 -43.5 18.5t-18.5 43.5v610q0 25 18.5 43.5t43.5 18.5h557q26 0 44 -18.5t18 -43.5v-76
q0 -11 8 -19t18.5 -8t18.5 8t8 19v76q0 47 -34 80.5t-81 33.5h-557q-47 0 -80.5 -33.5t-33.5 -80.5v-610q0 -47 33.5 -80.5t80.5 -33.5h147q11 0 18.5 7.5t7.5 18.5t-7.5 18.5t-18.5 7.5zM359 50z" />
    <glyph glyph-name="uniE64B" unicode="&#xe64b;" 
d="M946 651l-166 166q-8 8 -19 8h-628q-26 0 -44 -18t-18 -44v-759q0 -25 18 -43t44 -18h759q25 0 43 18t18 43v629q0 10 -7 18zM616 774h55v-189h-55v189zM352 774h213v-189h-213v189zM759 -6h-477v269q0 37 26.5 63t62.5 26h298q37 0 63.5 -26t26.5 -63v-269zM902 4
q0 -10 -10 -10h-82v269q0 58 -41.5 99t-99.5 41h-298q-58 0 -99 -41t-41 -99v-269h-98q-11 0 -11 10v759q0 11 11 11h168v-192q0 -20 14.5 -34.5t34.5 -14.5h323q21 0 35 14.5t14 34.5v192h29l151 -152v-618z" />
    <glyph glyph-name="uniE64C" unicode="&#xe64c;" 
d="M400 743h224v-331h331v-224h-331v-331h-224v331h-331v224h331v331z" />
    <glyph glyph-name="uniE64D" unicode="&#xe64d;" 
d="M719.5 29q-16.5 0 -28 -11.5t-11.5 -28t11.5 -28t28 -11.5t28.5 11.5t12 28t-12 28t-28.5 11.5zM416.5 29q-16.5 0 -28.5 -11.5t-12 -28t12 -28t28.5 -11.5t28 11.5t11.5 28t-11.5 28t-28 11.5zM901 514v4v2v2l-1 1q0 4 -2 7q-1 0 -1 1q-2 3 -5 5l-1 1l-6 2l-1 1h-2h-2
h-1h-514q-9 0 -14.5 -8t-3.5 -15l90 -291q3 -11 20 -11h317h1h1q9 -2 17 3t10 14l96 277l1 2l1 3v0zM847 125h-511l37 106q6 8 3 18v0l-120 375q-4 15 -20 16l-1 1l-77 14q-9 1 -16.5 -4.5t-9 -14.5t4 -16t14.5 -9l66 -12l114 -352l-52 -131l-1 -1v-1q-2 -2 -2 -4
q-1 -2 -1 -4q0 -1 -1 -2v-2h1q0 -2 0.5 -5t1.5 -4l3 -3q1 -2 2 -3v-1q1 0 1 -1q1 0 2 -1h1q2 -1 3 -1q3 -1 6 -1q0 -1 1 -1v0h551q9 0 15.5 6.5t6.5 15.5t-6.5 15.5t-15.5 6.5z" />
    <glyph glyph-name="uniE64E" unicode="&#xe64e;" 
d="M987 629h-182v73q0 46 -32 78t-77 32h-367q-45 0 -77.5 -32t-32.5 -78v-73h-182q-16 0 -26.5 -10.5t-10.5 -26t10.5 -26t26.5 -10.5h950q15 0 26 10.5t11 26t-10.5 26t-26.5 10.5zM841 483h-658q-15 0 -26 -11q-11 -10 -11 -25v-549q0 -46 32.5 -78t77.5 -32h512
q45 0 77.5 32t32.5 78v548q0 15 -11 26t-26 11zM439 -29q0 -15 -11 -26t-26 -11t-25.5 11t-10.5 26v402q0 15 10.5 26t25.5 11t26 -11t11 -26v-402zM658 -29q0 -15 -10.5 -26t-25.5 -11t-26 11t-11 26v402q0 15 11 26t26 11t25.5 -11t10.5 -26v-402z" />
    <glyph glyph-name="uniE64F" unicode="&#xe64f;" 
d="M736 811l224 -256v-63v-448q0 -50 -39 -89t-89 -39h-32v-8q0 -49 -38.5 -84.5t-89.5 -35.5h-480q-50 0 -89 39t-39 89v640q0 50 36.5 88.5t86.5 38.5l37 1v8q0 49 38.5 84.5t89.5 35.5h95t191 -0.5t98 -0.5zM224 44v576l-35 -1q-25 0 -43 -19t-18 -44v-640
q0 -25 19.5 -44.5t44.5 -19.5h480q26 0 45 17.5t19 41.5v5h-384q-50 0 -89 39t-39 89zM736 747v-96q0 -28 20 -62t44 -34h96zM896 492h-96q-51 0 -89.5 38.5t-38.5 88.5v129h-320q-25 0 -44.5 -19.5t-19.5 -44.5v-640q0 -25 19.5 -44.5t44.5 -19.5h480q25 0 44.5 19.5
t19.5 44.5v448zM736 140h-288q-13 0 -22.5 9t-9.5 22.5t9.5 23t22.5 9.5h288q13 0 22.5 -9.5t9.5 -23t-9.5 -22.5t-22.5 -9zM736 300h-288q-13 0 -22.5 9t-9.5 22.5t9.5 22.5t22.5 9h288q13 0 22.5 -9t9.5 -22.5t-9.5 -22.5t-22.5 -9z" />
    <glyph glyph-name="uniE650" unicode="&#xe650;" 
d="M803 -148h-582q-38 0 -65.5 28.5t-27.5 68.5v702q0 40 27.5 68.5t65.5 28.5h582q38 0 65.5 -28.5t27.5 -68.5v-702q0 -40 -27.5 -68.5t-65.5 -28.5zM221 693q-16 0 -28 -12.5t-12 -29.5v-702q0 -17 12 -29.5t28 -12.5h582q16 0 28 12.5t12 29.5v702q0 17 -12 29.5
t-28 12.5h-582zM324 477h-51v55h51v-55zM324 327h-51v-54h51v54zM324 123h-51v-55h51v55zM751 477h-386v55h386v-55zM751 327h-386v-54h386v54zM751 123h-386v-55h386v55z" />
    <glyph glyph-name="uniE651" unicode="&#xe651;" 
d="M213 727h598q35 0 60 -25t25 -61v-682q0 -36 -25 -61t-60 -25h-598q-35 0 -60 25t-25 61v682q0 36 25 61t60 25zM299 535v-86h431v86h-431zM299 365v-85h431v85h-431zM299 193v-85h322v85h-322z" />
    <glyph glyph-name="uniE652" unicode="&#xe652;" 
d="M67 43q0 -29 21 -49.5t50 -20.5h748q29 0 49.5 20.5t20.5 49.5v538h-889v-538zM512 464h374v-47h-374v47zM512 370h374v-47h-374v47zM512 277h374v-47h-374v47zM512 183h374v-47h-374v47zM512 90h374v-47h-374v47zM138 464h280v-421h-280v421zM886 814h-748
q-29 0 -50 -20.5t-21 -49.5v-117h889v117q0 29 -20.5 49.5t-49.5 20.5zM161 674q-19 0 -33 14t-14 33t14 33t33 14t33 -14t14 -33t-14 -33t-33 -14zM301.5 674q-19.5 0 -33.5 14t-14 33t14 33t33.5 14t33 -14t13.5 -33t-13.5 -33t-33 -14zM441.5 674q-19.5 0 -33 14
t-13.5 33t13.5 33t33 14t33 -14t13.5 -33t-13.5 -33t-33 -14zM159 441h238v-374h-238v374z" />
    <glyph glyph-name="uniE653" unicode="&#xe653;" 
d="M1024 384q0 139 -68.5 257t-186.5 186.5t-257 68.5t-257 -68.5t-186.5 -186.5t-68.5 -257t68.5 -257t186.5 -186.5t257 -68.5t257 68.5t186.5 186.5t68.5 257zM80 384q0 179 126.5 305.5t305.5 126.5t305.5 -126.5t126.5 -305.5t-126.5 -305.5t-305.5 -126.5
t-305.5 126.5t-126.5 305.5zM544 128v397l82 -77l46 43l-160 149l-160 -149l46 -43l82 77v-397h64z" />
    <glyph glyph-name="uniE654" unicode="&#xe654;" 
d="M1024 384q0 139 -68.5 257t-186.5 186.5t-257 68.5t-257 -68.5t-186.5 -186.5t-68.5 -257t68.5 -257t186.5 -186.5t257 -68.5t257 68.5t186.5 186.5t68.5 257zM80 384q0 179 126.5 305.5t305.5 126.5t305.5 -126.5t126.5 -305.5t-126.5 -305.5t-305.5 -126.5
t-305.5 126.5t-126.5 305.5zM726.5 297.5q9.5 9.5 9.5 22.5t-9 23l-192 192q-10 9 -23 9t-23 -9l-192 -192q-9 -10 -9 -23t9.5 -22.5t22.5 -9.5t23 9l169 170l169 -170q10 -9 23 -9t22.5 9.5z" />
    <glyph glyph-name="uniE655" unicode="&#xe655;" 
d="M409 855h-231q-31 0 -54 -22.5t-23 -54.5v-231q0 -32 23 -54.5t54 -22.5h231q32 0 54.5 22.5t22.5 54.5v231q0 32 -22.5 54.5t-54.5 22.5zM435 547q0 -10 -7.5 -17.5t-18.5 -7.5h-231q-10 0 -17.5 7.5t-7.5 17.5v231q0 11 7.5 18.5t17.5 7.5h231q11 0 18.5 -7.5
t7.5 -18.5v-231zM845 855h-231q-32 0 -54.5 -22.5t-22.5 -54.5v-231q0 -32 22.5 -54.5t54.5 -22.5h231q32 0 54.5 22.5t22.5 54.5v231q0 32 -22.5 54.5t-54.5 22.5zM871 547q0 -10 -7.5 -17.5t-18.5 -7.5h-231q-10 0 -17.5 7.5t-7.5 17.5v231q0 11 7.5 18.5t17.5 7.5h231
q11 0 18.5 -7.5t7.5 -18.5v-231zM409 419h-231q-31 0 -54 -22.5t-23 -54.5v-231q0 -31 23 -54t54 -23h231q32 0 54.5 23t22.5 54v231q0 32 -22.5 54.5t-54.5 22.5zM435 111q0 -10 -7.5 -17.5t-18.5 -7.5h-231q-10 0 -17.5 7.5t-7.5 17.5v231q0 11 7.5 18.5t17.5 7.5h231
q11 0 18.5 -7.5t7.5 -18.5v-231zM845 419h-231q-32 0 -54.5 -22.5t-22.5 -54.5v-231q0 -31 22.5 -54t54.5 -23h231q32 0 54.5 23t22.5 54v231q0 32 -22.5 54.5t-54.5 22.5zM871 111q0 -10 -7.5 -17.5t-18.5 -7.5h-231q-10 0 -17.5 7.5t-7.5 17.5v231q0 11 7.5 18.5t17.5 7.5
h231q11 0 18.5 -7.5t7.5 -18.5v-231z" />
    <glyph glyph-name="uniE656" unicode="&#xe656;" 
d="M849 448h-561v160q0 93 65.5 158.5t158.5 65.5t158.5 -65.5t65.5 -158.5q0 -13 9.5 -22.5t22.5 -9.5t22.5 9.5t9.5 22.5q0 119 -84.5 203.5t-203.5 84.5t-203.5 -84.5t-84.5 -203.5v-160h-49q-46 0 -78.5 -32.5t-32.5 -78.5v-354q0 -46 32.5 -78.5t78.5 -32.5h674
q46 0 78.5 32.5t32.5 78.5v354q0 46 -32.5 78.5t-78.5 32.5zM896 -17q0 -19 -14 -33t-33 -14h-674q-19 0 -33 14t-14 33v354q0 19 14 33t33 14h674q19 0 33 -14t14 -33v-354zM512 288q-13 0 -22.5 -9.5t-9.5 -22.5v-192q0 -13 9.5 -22.5t22.5 -9.5t22.5 9.5t9.5 22.5v192
q0 13 -9.5 22.5t-22.5 9.5z" />
    <glyph glyph-name="uniE657" unicode="&#xe657;" 
d="M4 494l125 125l379 -405l390 390l122 -117l-506 -507z" />
    <glyph glyph-name="uniE658" unicode="&#xe658;" 
d="M972 625q-14 -50 -32 -64q-69 -56 -140 -127.5t-152.5 -160t-131.5 -137.5l-11 -11q-17 -27 -39.5 -47t-51 -34t-52.5 -22.5t-59 -19.5t-56 -19q-14 -5 -31.5 14t-12.5 35q38 135 51 177q3 9 20 26q47 45 128.5 123t149.5 143t127 123q14 14 28.5 29.5t34 39t26.5 31.5
q30 35 68 37t70 -30q4 -4 15.5 -14.5t17 -16t13 -15.5t12 -20t5.5 -22q1 -3 2 -8.5t1 -6.5q1 -1 0 -1.5t0 -1.5zM726 582q-62 -63 -192.5 -193t-196.5 -197q10 -10 33 -33.5t35 -34.5q270 265 393 385q-12 13 -36 37zM757 638q18 -17 49 -47t46 -44q18 25 19 27
q18 18 24.5 25t12.5 18t6 14.5t-6.5 15t-13.5 18t-26 23.5q0 1 -1.5 2t-1.5 2q-25 22 -50 0zM273 54q23 9 74 30q-6 7 -46 55q-4 -11 -13 -39t-15 -46zM462 -161h-261q-79 0 -122 52q-27 32 -27 86v519q1 70 41 109.5t110 39.5q31 1 141.5 0.5t141.5 -0.5q12 0 19.5 -1
t14.5 -7.5t8 -18.5q3 -29 -44 -29h-137h-137q-49 0 -76 -27t-27 -76v-501q0 -39 24.5 -64t62.5 -25q229 -1 536 0q31 0 50 21t20 55v192v151q0 22 2 25q18 25 29 23q3 0 5.5 -2t5 -5.5t4.5 -6t5 -7.5t5 -7v-15v-340q0 -72 -34.5 -106.5t-106.5 -34.5h-253zM462 -161z" />
    <glyph glyph-name="uniE659" unicode="&#xe659;" 
d="M277 467q-3 -2 -1.5 -5.5t4.5 -3.5h146v-248q0 -7 4.5 -12t11.5 -5h143q6 0 10.5 5t4.5 12v248h146q4 0 5 3.5t-2 5.5l-225 218q-5 4 -11 4t-11 -4l-225 -218v0zM973 139l-141 113q-15 12 -33 12h-82l136 -141h-136l-69 -102h-272l-67 102h-136l136 141h-84
q-18 0 -33 -12l-141 -113q-15 -12 -9 -30l57 -180q2 -7 9 -12.5t15 -5.5h779q8 0 15 5.5t10 12.5l55 180q6 18 -9 30z" />
    <glyph glyph-name="uniE65A" unicode="&#xe65a;" 
d="M437.5 9q-100.5 0 -185.5 49.5t-135 135t-50 186t50 185.5t135 134.5t185.5 49.5t185.5 -49.5t134.5 -134.5t49.5 -185.5t-49.5 -186t-134.5 -135t-185.5 -49.5zM438 687q-127 0 -217.5 -90t-90.5 -217.5t90.5 -218t217.5 -90.5t217.5 90.5t90.5 218t-90.5 217.5
t-217.5 90zM923 -165q-13 0 -22 9l-259 242q-10 9 -10.5 22.5t9 23t23 10t22.5 -8.5l260 -242q9 -10 9.5 -23t-8.5 -23q-10 -10 -24 -10z" />
    <glyph glyph-name="uniE65B" unicode="&#xe65b;" 
d="M810 763h-600q-32 0 -54.5 -23t-22.5 -55v-600q0 -32 22.5 -55t54.5 -23h601q32 0 54.5 23t22.5 55v600q0 32 -23 55t-55 23v0zM742 548l-2 -1v-2q-12 -85 -78 -142t-152 -57t-152 57t-78 142v2l-2 1q-18 11 -18 31q0 15 10.5 25.5t25.5 10.5t25.5 -10.5t10.5 -25.5
q0 -16 -13 -28l-2 -1l1 -2q11 -72 65.5 -118.5t127 -46.5t126.5 46.5t66 118.5v2l-1 1q-14 11 -14 28q0 15 10.5 25.5t25.5 10.5t25.5 -10.5t10.5 -25.5q0 -20 -18 -31v0z" />
    <glyph glyph-name="uniE65C" unicode="&#xe65c;" 
d="M327 322h-124q-51 0 -87.5 -36t-36.5 -87v-124q0 -51 36.5 -87.5t87.5 -36.5h124q51 0 87 36.5t36 87.5v124q0 51 -36 87t-87 36zM327 817h-124q-51 0 -87.5 -36.5t-36.5 -87.5v-124q0 -51 36.5 -87t87.5 -36h124q51 0 87 36t36 87v124q0 51 -36 87.5t-87 36.5zM821 817
h-124q-51 0 -87 -36.5t-36 -87.5v-124q0 -51 36 -87t87 -36h124q51 0 87.5 36t36.5 87v124q0 51 -36.5 87.5t-87.5 36.5zM821 322h-124q-51 0 -87 -36t-36 -87v-124q0 -51 36 -87.5t87 -36.5h124q51 0 87.5 36.5t36.5 87.5v124q0 51 -36.5 87t-87.5 36z" />
    <glyph glyph-name="uniE65D" unicode="&#xe65d;" 
d="M431 -86q13 25 37 68t92 154.5t129 198.5q48 67 108 137.5t96 107.5l36 37l-28 75q-17 -12 -47 -33.5t-105.5 -83.5t-132.5 -120q-58 -59 -115.5 -132t-86 -115t-28.5 -44l-196 179l-80 -83z" />
    <glyph glyph-name="uniE65E" unicode="&#xe65e;" 
d="M945 621q-10 -1 -17 -1q-416 -1 -831 0q-7 0 -17 1q-16 -6 -16 -23v-2q36 -24 37 -26q118 -107 338 -308q40 -37 73 -37t74 37q247 227 335 306q1 1 39 28v2q0 17 -15 23zM696 259q-22 20 -42 -1q-8 -8 -47 -43q-46 -40 -95 -40t-95 41q-8 6 -64 57q-169 -139 -188 -154
q-6 -6 -101 -81v-35q0 -10 7 -17t17 -7h848q10 0 17 7t7 17v42q-149 118 -165 131q-59 48 -99 83zM64 536v-438q106 88 252 210q-132 120 -252 228zM960 105v431q-102 -92 -249 -226q175 -144 249 -205z" />
    <glyph glyph-name="uniE65F" unicode="&#xe65f;" 
d="M786 809h-535q-19 0 -32 -13.5t-13 -32.5v-55v-22v-715v-51v-83q0 -19 13 -32.5t32 -13.5h78h168h44h167h78q19 0 32.5 13.5t13.5 32.5v107v27v715v45v32q0 19 -13.5 32.5t-32.5 13.5zM580 754q6 6 15 6t15 -6q6 -7 6 -15q0 -9 -6 -15q-6 -7 -15 -7t-15 6q-6 7 -6 15.5
t6 15.5zM457 760h59q8 0 14.5 -6.5t6.5 -15t-6.5 -15t-14.5 -6.5h-59q-9 0 -15.5 6.5t-6.5 15t6.5 15t15.5 6.5zM518.5 -166q-20.5 0 -34.5 14.5t-14 35t14 35t34.5 14.5t35 -14.5t14.5 -35t-14.5 -35t-35 -14.5zM787 -29h-536v698h536v-698z" />
    <glyph glyph-name="uniE660" unicode="&#xe660;" 
d="M500 207h24q14 0 24.5 -10.5t10.5 -24.5v-163q0 -14 -10.5 -24.5t-24.5 -10.5h-24q-14 0 -24.5 10.5t-10.5 24.5v163q0 14 10.5 24.5t24.5 10.5zM884 323v-419q0 -19 -13.5 -32.5t-32.5 -13.5h-652q-19 0 -32.5 13.5t-13.5 32.5v419h744zM954 393h-884v-489q0 -48 34 -82
t82 -34h652q48 0 82 34t34 82v489zM861 393h-70v70q0 116 -83 197.5t-196 81.5q-114 0 -196.5 -82.5t-82.5 -196.5v-70h-70v70q0 93 47 174t127.5 128t174.5 47q93 0 173 -45.5t128 -126.5t48 -177v-70z" />
    <glyph glyph-name="uniE661" unicode="&#xe661;" 
d="M999 324v324q0 22 -14 35t-28 14l-14 1h-548q-41 0 -51 -31h-146l-178 -214v-374v-5q0 -4 2.5 -12.5t7.5 -14.5t16.5 -11.5t27.5 -5.5h80q13 -29 42.5 -47t64.5 -18q36 0 64.5 17.5t42.5 46.5h200q14 -27 42 -44t62.5 -17t62.5 17t42 45h81q24 0 37.5 12.5t14.5 25.5
l1 12v195h33q25 0 39 12t15 25zM260.5 12q-26.5 0 -45 17t-18.5 41t18.5 41t45 17t45 -17t18.5 -41t-18.5 -41t-45 -17zM671.5 16q-26.5 0 -45 17t-18.5 41t18.5 41t45 17t45 -17t18.5 -41t-18.5 -41t-45 -17zM858 96q0 -8 -4.5 -12.5t-8.5 -4.5h-5h-52v-1q-2 43 -35.5 72.5
t-80.5 29.5t-80.5 -29.5t-34.5 -72.5h-180q-3 42 -36.5 70.5t-79 28.5t-79 -28.5t-36.5 -70.5l-54 1q-1 0 -5 -1t-9 3.5t-4 13.5v343l146 181l122 -1l-1 -293q0 -24 13.5 -36t27.5 -13h13l464 -1zM929 324h-517q-1 0 -4.5 -1t-8.5 3.5t-5 13.5v294q0 2 0.5 4.5t5 7.5t13.5 5
l516 -1q17 1 17 -16v-293q3 -1 -1 -9t-16 -8z" />
    <glyph glyph-name="uniE662" unicode="&#xe662;" horiz-adv-x="1026" 
d="M0 78q0 -15 10.5 -25.5t25.5 -10.5t25 11l421 421q13 12 30.5 12t29.5 -12l421 -421q11 -11 25.5 -11t25 10.5t10.5 25.5t-10 25l-421 421q-34 34 -81 34t-80 -34l-422 -421q-10 -10 -10 -25z" />
    <glyph glyph-name="uniE663" unicode="&#xe663;" horiz-adv-x="1026" 
d="M1024 522q0 15 -10.5 25.5t-25 10.5t-25.5 -11l-421 -421q-12 -12 -29.5 -12t-30.5 12l-421 421q-10 11 -25 11t-25.5 -10.5t-10.5 -25.5t10 -25l422 -422q33 -33 80 -33t81 33l421 422q10 10 10 25z" />
    <glyph glyph-name="uniE664" unicode="&#xe664;" 
d="M678 648h-85v104q0 24 -22 42t-48 18h-17q-26 0 -48 -18t-22 -42v-104h-90q-8 0 -13.5 -5t-5.5 -13v-63h370v63q0 8 -5.5 13t-13.5 5zM512 671q-15 0 -26 11t-11 26t11 26t26 11t26 -11t11 -26t-11 -26t-26 -11zM512 759zM765 -212h-506q-47 0 -80 33t-33 80v709
q0 47 33 80t80 33h195v-24h-195q-37 0 -63 -26t-26 -63v-709q0 -37 26 -63t63 -26h506q37 0 63 26t26 63v709q0 37 -26 63t-63 26h-191v24h191q47 0 80 -33t33 -80v-709q0 -47 -33 -80t-80 -33zM452 375h-148q-5 0 -8.5 3.5t-3.5 8.5t3.5 8.5t8.5 3.5h148q5 0 8.5 -3.5
t3.5 -8.5t-3.5 -8.5t-8.5 -3.5zM452 274h-148q-5 0 -8.5 3.5t-3.5 8.5t3.5 8.5t8.5 3.5h148q5 0 8.5 -3.5t3.5 -8.5t-3.5 -8.5t-8.5 -3.5zM720 172h-416q-5 0 -8.5 3.5t-3.5 8.5t3.5 8.5t8.5 3.5h416q5 0 8.5 -3.5t3.5 -8.5t-3.5 -8.5t-8.5 -3.5zM720 71h-416q-5 0 -8.5 3.5
t-3.5 8.5t3.5 8.5t8.5 3.5h416q5 0 8.5 -3.5t3.5 -8.5t-3.5 -8.5t-8.5 -3.5zM720 -30h-416q-5 0 -8.5 3.5t-3.5 8.5t3.5 8.5t8.5 3.5h416q5 0 8.5 -3.5t3.5 -8.5t-3.5 -8.5t-8.5 -3.5z" />
    <glyph glyph-name="uniE665" unicode="&#xe665;" 
d="M498 144h-187q-9 0 -15 -6.5t-6 -15.5v-11q0 -9 6 -15.5t15 -6.5h187q9 0 15 6.5t6 15.5v11q0 9 -6 15.5t-15 6.5zM704 341h-392q-9 0 -15.5 -6.5t-6.5 -15.5v-11q0 -9 6.5 -15.5t15.5 -6.5h392q9 0 15.5 6.5t6.5 15.5v11q0 9 -6.5 15.5t-15.5 6.5zM704 549h-392
q-9 0 -15.5 -6.5t-6.5 -15.5v-11q0 -9 6.5 -15.5t15.5 -6.5h392q9 0 15.5 6.5t6.5 15.5v11q0 9 -6.5 15.5t-15.5 6.5zM769 -34l-19 9l8 -18zM899 800h-780q-19 0 -32.5 -13.5t-13.5 -31.5v-905q0 -18 13.5 -31.5t32.5 -13.5h555q21 4 40 21l208 200q18 16 23 44v685
q0 18 -13.5 31.5t-32.5 13.5zM748 -78q-2 -4 -7 -9q-8 -6 -15 -6.5t-14 5.5l7 7q4 -3 8 -3t8 4q4 3 4.5 6t-1.5 5t-3.5 2t-4.5 -1q-1 -1 -8 -4q-7 -4 -12 -4q-7 0 -11 4q-3 3 -3.5 7t1.5 8t6 8q8 7 14.5 7t11.5 -5l-7 -7q-4 2 -6.5 2t-6 -3t-4.5 -6q0 -2 1 -4q1 -1 3 -1
q3 0 10 4t11 5t8 0t7 -5q3 -3 4 -7q1 -5 -1 -9zM789 -44l-11 6l-16 -14l5 -11l-9 -7l-20 50l8 8l52 -24zM802 -32l-35 37l8 7l29 -31l20 17l6 -6zM835 -4l-35 38l28 25l6 -6l-21 -19l8 -8l20 17l6 -6l-20 -17l10 -10l22 19l6 -7zM888 33l-1 1h1v-1zM888 78h-179
q-30 0 -40.5 -10t-10.5 -39v-169h-502q-11 0 -18 7t-7 18v835q0 11 7 18t18 7h706q11 0 18 -7t7 -18v-642h1z" />
    <glyph glyph-name="uniE666" unicode="&#xe666;" horiz-adv-x="1025" 
d="M814 703h-120v20q0 39 -28 66.5t-67 27.5h-189q-39 0 -67 -27.5t-28 -66.5v-20h-105q-56 0 -95.5 -40t-39.5 -96v-445q0 -56 39.5 -96t95.5 -40h604q56 0 95.5 40t39.5 96v445q0 56 -39.5 96t-95.5 40zM524 38h-314q-11 0 -21 2v26q0 67 46 115.5t112 52.5q5 -1 9.5 -1
t8.5 1q67 -4 113 -52.5t46 -115.5v-28zM293 348v66q0 26 18.5 44.5t45 18.5t45 -18.5t18.5 -44.5v-66q0 -24 -16 -42t-40 -21h-8h-7q-24 3 -40 21t-16 42zM898 122q0 -35 -24.5 -59.5t-59.5 -24.5h-239v28q0 91 -64 155q-32 31 -72 48q32 33 32 79v66q0 47 -33.5 80.5
t-81 33.5t-81 -33.5t-33.5 -80.5v-66q0 -46 31 -79q-40 -17 -71 -48q-60 -59 -64 -142q-12 20 -12 43v445q0 35 24.5 60t59.5 25h156v71q0 18 13 30.5t31 12.5h189q18 0 30.5 -12.5t12.5 -30.5v-71h172q35 0 59.5 -25t24.5 -60v-445zM797 499h-201q-10 0 -17.5 -7.5
t-7.5 -18t7.5 -18t17.5 -7.5h201q11 0 18.5 7.5t7.5 18t-7.5 18t-18.5 7.5zM797 370h-201q-10 0 -17.5 -7.5t-7.5 -18t7.5 -18t17.5 -7.5h201q11 0 18.5 7.5t7.5 18t-7.5 18t-18.5 7.5zM797 242h-100q-11 0 -18.5 -7.5t-7.5 -18t7.5 -18t18.5 -7.5h100q11 0 18.5 7.5t7.5 18
t-7.5 18t-18.5 7.5zM581 680q0 11 -7.5 18.5t-18.5 7.5h-100q-11 0 -18.5 -7.5t-7.5 -18.5t7.5 -18.5t18.5 -7.5h100q11 0 18.5 7.5t7.5 18.5z" />
    <glyph glyph-name="uniE667" unicode="&#xe667;" 
d="M512 865q-99 0 -189.5 -39t-156 -104t-104 -155.5t-38.5 -189.5t38.5 -189.5t104 -156t156 -104t189.5 -38.5t189.5 38.5t156 104t104 156t38.5 189.5t-38.5 189.5t-104 155.5t-156 104t-189.5 39zM512 -77q-92 0 -176 36t-145 97t-97 145t-36 176t36 176t97 145t145 97
t176 36t176 -36t145 -97t97 -145t36 -176t-36 -176t-97 -145t-145 -97t-176 -36zM735 175l-202 202l202 202l-21 20l-202 -202l-202 202l-21 -20l202 -202l-202 -202l21 -21l202 202l202 -202z" />
    <glyph glyph-name="uniE668" unicode="&#xe668;" 
d="M512 867q-99 0 -189.5 -38.5t-156 -104t-104 -155.5t-38.5 -189.5t38.5 -189.5t104 -155.5t156 -104t189.5 -38.5t189.5 38.5t156 104t104 155.5t38.5 189.5t-38.5 189.5t-104 155.5t-156 104t-189.5 38.5zM512 -74q-92 0 -176 36t-145 96.5t-97 144.5t-36 176.5
t36 176.5t97 144.5t145 96.5t176 36t176 -36t145 -96.5t97 -144.5t36 -176.5t-36 -176.5t-97 -144.5t-145 -96.5t-176 -36zM249 433l230 -230l-22 -23l-231 231zM434 203l377 376l22 -23l-376 -376z" />
    <glyph glyph-name="uniE669" unicode="&#xe669;" 
d="M1008 521l-413 292q-48 34 -83 34t-83 -34l-413 -292q-10 -5 -12.5 -13.5t6.5 -18.5q12 -13 19 -13q12 0 12 7l39 25v-611q0 -9 7.5 -17t17.5 -8q9 0 17 11t8 21v642l331 229q34 24 54.5 24t53.5 -24l325 -229v-642q0 -10 8 -18t17.5 -8t17 8t7.5 18v604l39 -25
q23 -12 31 6q9 10 6.5 18.5t-12.5 13.5zM213 444h140v-152h-140v152zM213 247h140v-152h-140v152zM213 50h140v-153h-140v153zM442 247h140v-152h-140v152zM442 50h140v-153h-140v153zM677 50h140v-153h-140v153z" />
    <glyph glyph-name="uniE66A" unicode="&#xe66a;" horiz-adv-x="1756" 
d="M1101 128h-447q-13 0 -22.5 -9.5t-9.5 -22.5t9.5 -22.5t22.5 -9.5h447q13 0 22.5 9.5t9.5 22.5t-9.5 22.5t-22.5 9.5zM1196 765h-95v64h-86q-21 29 -57.5 46.5t-80 17.5t-80 -17.5t-57.5 -46.5h-86v-64h-95q-53 0 -90.5 -37t-37.5 -90v-638q0 -53 37.5 -90.5t90.5 -37.5
h637q53 0 90.5 37.5t37.5 90.5v638q0 53 -37.5 90t-90.5 37zM718 765h71q0 27 26 45.5t62.5 18.5t62.5 -18.5t26 -45.5h71v-127h-319v127zM1260 0q0 -26 -18.5 -45t-45.5 -19h-637q-27 0 -45.5 19t-18.5 45v638q0 26 18.5 45t45.5 19h95v-128h447v128h95q27 0 45.5 -19
t18.5 -45v-638zM1101 287h-447q-13 0 -22.5 -9.5t-9.5 -22.5t9.5 -22.5t22.5 -9.5h447q13 0 22.5 9.5t9.5 22.5t-9.5 22.5t-22.5 9.5zM1101 447h-447q-13 0 -22.5 -9.5t-9.5 -23t9.5 -22.5t22.5 -9h447q13 0 22.5 9t9.5 22.5t-9.5 23t-22.5 9.5zM1101 447z" />
    <glyph glyph-name="uniE66B" unicode="&#xe66b;" 
d="M843 504h-94v-59h94q10 0 17.5 -7.5t7.5 -17.5v-484q0 -10 -7.5 -17.5t-17.5 -7.5h-662q-10 0 -17.5 7.5t-7.5 17.5v484q0 10 7.5 17.5t17.5 7.5h94v59h-94q-35 0 -59.5 -25t-24.5 -59v-484q0 -35 24.5 -59.5t59.5 -24.5h662q35 0 59.5 24.5t24.5 59.5v484q0 34 -24.5 59
t-59.5 25zM344 229q26 0 44.5 18.5t18.5 43.5q0 38 -34 55v214q0 52 45.5 90.5t100.5 38.5q53 0 92.5 -38t39.5 -91v-212q-17 -7 -27 -22.5t-10 -34.5q0 -25 18.5 -43.5t44.5 -18.5t44 18.5t18 43.5q0 35 -29 53v216q0 77 -56.5 132.5t-134.5 55.5q-80 0 -142.5 -56
t-62.5 -132v-214q-32 -18 -32 -55q0 -25 18 -43.5t44 -18.5zM414 445h196v59h-196v-59z" />
    <glyph glyph-name="uniE66C" unicode="&#xe66c;" 
d="M96 268zM0 268q0 40 28 68t68 28t68 -28t28 -67.5t-28 -68t-68 -28.5t-68 28.5t-28 67.5zM513 268zM417 268.5q0 39.5 28 67.5t68 28t68 -28t28 -67.5t-28 -68t-68 -28.5t-68 28.5t-28 68zM929 268zM833 268.5q0 39.5 28 67.5t67.5 28t68 -28t28.5 -67.5t-28.5 -68
t-68 -28.5t-67.5 28.5t-28 68z" />
    <glyph glyph-name="uniE66D" unicode="&#xe66d;" 
d="M910 16zM853 15.5q0 23.5 17 40t40.5 16.5t40 -16.5t16.5 -40t-16.5 -40t-40 -16.5t-40.5 16.5t-17 40zM882 143q1 -12 10 -20t21 -8q13 0 22 9t9 22v1v5q0 90 -63 153t-153 63q-6 0 -20 -1q-2 3 -5 7q14 36 14 74q0 89 -63.5 152.5t-153 63.5t-153 -63.5t-63.5 -152.5
q0 -42 16 -82q-15 2 -27 2q-89 0 -152.5 -63t-63.5 -152.5t63.5 -153t152.5 -63.5q2 0 6 0.5t5 0.5l-1 -1q104 8 153 87l41 55q0 1 2 3l2 2l58 79l48 65q23 33 60 53t79 20h2v0q46 0 83 -26q33 -21 52 -55.5t19 -74.5v-1zM407 90q0 -1 -1 -2q-4 -8 -9 -16q0 -1 -1 -1v-1
q-17 -24 -41 -41q-1 0 -1 -1h-1q-39 -25 -85 -25q-60 1 -101.5 44.5t-41.5 104.5t43.5 104.5t104.5 43.5t104.5 -43.5t43.5 -104.5v-5v-6q-2 -27 -14 -51zM500.5 300q-61.5 0 -104.5 43.5t-43 104.5t43 104.5t104.5 43.5t105 -43.5t43.5 -104.5t-43.5 -104.5t-105 -43.5z
" />
    <glyph glyph-name="uniE66E" unicode="&#xe66e;" horiz-adv-x="1025" 
d="M864 254q41 81 41 171q0 105 -52.5 194t-143 141t-197.5 52t-197.5 -52t-143 -141t-52.5 -194q0 -90 41 -171l-160 -272q101 -20 204 -42l136 -152l147 251q20 -2 25 -2t25 2l147 -251l136 152q46 10 97 20.5t79 15.5l28 6zM333 -96q-49 47 -96 92l-131 37l93 159
q84 -110 219 -143zM512 108q-87 0 -160.5 43t-116.5 116.5t-43 160.5t43 161t116.5 116.5t160.5 42.5t160.5 -42.5t116.5 -116.5t43 -161t-43 -160.5t-116.5 -116.5t-160.5 -43zM787 -4l-96 -92l-85 145q135 33 219 143l93 -159zM512 652q-93 0 -158.5 -65.5t-65.5 -158.5
t65.5 -158.5t158.5 -65.5t158.5 65.5t65.5 158.5t-65.5 158.5t-158.5 65.5zM512 268q-66 0 -113 47t-47 113t47 113t113 47t113 -47t47 -113t-47 -113t-113 -47z" />
    <glyph glyph-name="uniE66F" unicode="&#xe66f;" 
d="M758 -154h-568q-43 0 -73.5 32t-30.5 77v682q0 46 31 82t73 36h63v57h444v-57h61q44 0 74.5 -32t30.5 -77v-691q0 -45 -30.5 -77t-74.5 -32zM641 756h-333v-86h333v86zM808 633q0 29 -12.5 47t-37.5 18l-61 1v-85h-444v84h-63q-49 0 -49 -61v-682q0 -27 11.5 -39.5
t37.5 -12.5h568q26 0 38 12.5t12 39.5v678zM281 243h444v-57h-444v57zM280 386h445v-57h-445v57zM530 528h195v-56h-195v56zM641 45h-361v57h361v-57z" />
    <glyph glyph-name="uniE670" unicode="&#xe670;" 
d="M866 143h78v-197q0 -32 -23 -55t-55 -23h-708q-32 0 -55 23t-23 55v197h78v-197h707v197h1zM80 261h864v78h-864v-78zM866 732h-708q-32 0 -55 -23t-23 -55v-197h78v197h707v-197h79v197q0 32 -23 55t-55 23z" />
    <glyph glyph-name="uniE671" unicode="&#xe671;" 
d="M245 84q0 -18 -11 -30t-26 -12q-16 0 -26.5 12t-10.5 30v645q0 18 10.5 30t26.5 12q15 0 26 -12t11 -30v-645zM417 194q0 -19 -13 -32t-31 -13t-31 13t-13 32v119q0 19 13 32t31 13t31 -13t13 -32v-119zM603 194q0 -19 -13 -32t-31 -13t-31 13t-13 32v405q0 18 13 31
t31 13t31 -13t13 -31v-405zM797 194q0 -19 -13 -32t-31 -13t-31 13t-13 32v178q0 18 13 31t31 13t31 -13t13 -31v-178zM217 42q-17 0 -29 10.5t-12 24.5q0 15 12 25.5t29 10.5h626q17 0 29 -10.5t12 -25.5q0 -14 -12 -24.5t-29 -10.5h-626z" />
    <glyph glyph-name="uniE672" unicode="&#xe672;" 
d="M549 462h-177q-10 0 -17.5 -7.5t-7.5 -18t7.5 -18t17.5 -7.5h177q10 0 17.5 7.5t7.5 18t-7.5 18t-17.5 7.5zM549 361h-177q-10 0 -17.5 -7.5t-7.5 -18t7.5 -18t17.5 -7.5h177q10 0 17.5 7.5t7.5 18t-7.5 18t-17.5 7.5zM461 512q-11 0 -18.5 -7.5t-7.5 -17.5v-252
q0 -11 7.5 -18.5t18 -7.5t18 7.5t7.5 18.5v252q0 10 -7.5 17.5t-17.5 7.5zM372 613q-11 0 -18 -7.5t-7 -18t7 -17.5l89 -89q7 -8 17.5 -8t18 7.5t7.5 18t-7 17.5l-89 90q-8 7 -18 7zM549 612q-10 0 -17 -7l-90 -89q-7 -8 -7 -18.5t7.5 -17.5t18 -7t17.5 7l89 89q8 8 8 18
t-7.5 17.5t-18.5 7.5zM793 -88q-8 0 -16 3q-6 3 -10 8v0q-6 6 -13 12q-14 10 -24 10t-24 -10q-8 -6 -14 -12q-3 -3 -6 -5q-18 -11 -35 -2l-47 27q-11 6 -15 17.5t1 23.5q4 9 4 17q0 19 -12.5 32t-31.5 14q-11 1 -19.5 8.5t-10.5 18.5q-4 24 -4 40.5t4 41.5q2 11 10.5 18.5
t19.5 7.5q19 1 31.5 14.5t12.5 32.5q0 7 -4 18q-5 11 -0.5 22.5t14.5 17.5l50 27q17 10 35 -1q3 -2 6 -6q6 -5 13 -11q15 -10 24 -10t24 10q7 5 13 12q2 1 4 3q18 13 36 3l49 -27q11 -6 15 -18t-1 -23q-4 -9 -4 -17q0 -19 12.5 -32.5t31.5 -14.5q11 0 19.5 -7.5t9.5 -18.5
q5 -25 5 -41q0 -17 -5 -41q-1 -11 -9.5 -18.5t-19.5 -8.5q-19 -1 -31.5 -14t-12.5 -32q0 -8 4 -18q4 -11 0 -22.5t-14 -17.5l-49 -27q-8 -4 -16 -4zM730 9q31 0 62 -23q3 -2 5 -4l8 5q-1 7 -1 14q0 37 21.5 66t55.5 39q1 5 1 8.5t-1 8.5q-34 11 -55.5 40t-21.5 66q0 6 1 14
l-8 4q-2 -2 -5 -3q-61 -43 -121 0q-2 2 -5 4l-9 -5q1 -8 1 -14q0 -37 -21.5 -66t-55.5 -40q-1 -5 -1 -8.5t1 -8.5q34 -10 55.5 -39t21.5 -66q0 -7 -1 -14l6 -4q3 2 5 3q31 23 62 23zM442 -38h-231q-40 0 -68 27t-28 65v711q0 38 28 64.5t68 26.5h499q40 0 68 -26.5t28 -64.5
v-361q0 -13 -9 -22.5t-22.5 -9.5t-23 9.5t-9.5 22.5v361q0 11 -9 19t-23 8h-499q-14 0 -23 -8t-9 -19v-711q0 -11 9 -19.5t23 -8.5h231q13 0 22.5 -9.5t9.5 -22.5t-9.5 -22.5t-22.5 -9.5z" />
    <glyph glyph-name="uniE673" unicode="&#xe673;" 
d="M856 121q-48 -95 -139 -153t-201 -58t-201.5 58t-138.5 153h-64q50 -120 159.5 -194.5t244.5 -74.5t244.5 74.5t159.5 194.5h-64zM856 478q-48 95 -139 153t-201 58t-201.5 -58t-138.5 -153h-64q50 120 159.5 195t244.5 75t244.5 -75t159.5 -195h-64zM341 357l-61 -14
q-13 43 -59 45q-64 -3 -68 -90q4 -86 68 -92q52 1 61 62l61 -19q-21 -94 -122 -94q-129 6 -136 143q7 137 136 145q92 -4 120 -86zM622 160h-80l-68 108h-37v-109h-63v280h128q103 -2 106 -84q2 -69 -68 -83zM492 390h-55v-75h55q50 0 49 37q3 39 -49 38zM939 159h-61v166
q0 27 2 63h-1q-4 -25 -10 -48l-52 -181h-54l-52 186q-4 16 -10 43h-1q0 -7 1 -21q1 -39 1 -55v-153h-59v280h94l49 -184q1 -7 4 -30q0 4 1 10q0 16 3 20l49 184h96v-280z" />
    <glyph glyph-name="uniE674" unicode="&#xe674;" 
d="M933 248h-78v105q0 26 -17.5 44t-41.5 18h-255v105h59q16 0 27.5 12.5t11.5 29.5v189q0 18 -11.5 30t-27.5 12h-176q-16 0 -27.5 -12t-11.5 -30v-189q0 -17 11.5 -29.5t27.5 -12.5h39v-105h-254q-25 0 -42 -18t-17 -44v-105h-59q-16 0 -27.5 -12.5t-11.5 -29.5v-189
q0 -18 11.5 -30t27.5 -12h176q16 0 27.5 12t11.5 30v189q0 17 -11.5 29.5t-27.5 12.5h-59v105h255v-105h-39q-16 0 -27.5 -12.5t-11.5 -29.5v-189q0 -18 11.5 -30t27.5 -12h176q16 0 27.5 12t11.5 30v189q0 17 -11.5 29.5t-27.5 12.5h-59v105h255v-105h-39
q-16 0 -27.5 -12.5t-11.5 -29.5v-189q0 -18 11.5 -30t27.5 -12h176q16 0 27.5 12t11.5 30v189q0 17 -11.5 29.5t-27.5 12.5zM933 248z" />
    <glyph glyph-name="uniE675" unicode="&#xe675;" 
d="M511 873q-100 0 -191 -39t-157 -104.5t-105 -157t-39 -191.5t39 -191t105 -157t157 -105t191 -39q154 0 280 87q13 11 13 28q0 15 -10.5 25t-25.5 10q-16 0 -26 -12q-105 -68 -230 -68q-115 0 -212 57t-153.5 154t-56.5 211.5t56.5 212t153.5 154t212 56.5t212 -56.5
t153.5 -154t56.5 -211.5q0 -142 -85 -255q-12 -11 -12 -27q0 -14 10 -24.5t25 -10.5q14 0 24 9v0q4 4 7 10q100 131 100 297q0 100 -38.5 191.5t-104.5 157t-157.5 104.5t-191.5 39zM511 873zM629 270q9 44 10 92h-95v-101q43 1 85 9v0zM507 261v101h-103q0 -45 8 -87
q49 -11 95 -14v0v0zM544 495v-97h93q-2 43 -13 88q-39 8 -80 9v0v0zM696 504q-8 11 -18 21q-16 15 -34 27q6 -19 10 -35q22 -6 42 -13v0v0zM739 398q-3 29 -14 56q-30 13 -61 22q8 -40 10 -78h65v0zM727 303q3 8 6 17q3 13 5 27v2q1 3 1 8l1 1v4h-65q0 -42 -7 -82
q30 9 59 23v0v0zM647 200q4 3 10 7q11 9 20 18q13 13 24 28q-20 -8 -42 -13q-5 -19 -12 -40v0v0zM544 164q14 1 28 4h1h1q11 3 24 7q12 28 21 56q-38 -6 -75 -7v-60v0zM442 180q15 -6 30 -10t29 -5q2 -1 6 -1v61q-42 2 -85 11q8 -28 20 -56v0v0zM353 253l6 -8q8 -10 18 -20
q8 -8 14 -13q-5 15 -9 33q-15 4 -29 8v0v0zM315 362q1 -17 4 -32l1 -2q3 -15 8 -28q23 -9 45 -15q-6 38 -6 77h-52v0zM547 535l-152 -43l10 39q-70 2 -119 -37.5t-56 -117.5q2 105 54.5 172.5t142.5 67.5l9 36l111 -117v0zM494 112h-1h-2q-43 6 -82 26h-1l-2 1
q-53 27 -89.5 74.5t-48.5 105.5l-1 2q-3 14 -4 28l2 24q3 35 17 61q27 47 82 59l-6 -27q-13 -5 -27 -9q-6 -14 -9 -27q-4 -15 -6 -30v-2h52q2 26 6 50l39 11q-6 -31 -8 -61h102v88l110 31l-10 13l-102 109q28 2 56 -2h1h1q89 -12 152 -75q56 -56 72 -133l1 -4q8 -41 2 -83
v-1v-2q-6 -43 -26 -82v-1l-1 -2q-27 -52 -74.5 -88.5t-105.5 -49.5h-2h-1l1 -1q-43 -8 -87 -3v0zM494 112z" />
    <glyph glyph-name="uniE676" unicode="&#xe676;" 
d="M1024 396q0 52 -68 96q68 44 68 96t-68.5 96.5t-186.5 70t-257 25.5t-257 -25.5t-186.5 -70t-68.5 -96.5t68 -96q-68 -44 -68 -96t68 -96q-68 -44 -68 -96t68 -96q-68 -44 -68 -96t68.5 -96.5t186.5 -70t257 -25.5t257 25.5t186.5 70t68.5 96.5t-68 96q68 44 68 96
t-68 96q68 44 68 96zM64 588q0 53 131 90.5t317 37.5t317 -37.5t131 -90.5t-131 -90.5t-317 -37.5t-317 37.5t-131 90.5zM960 12q0 -53 -131 -90.5t-317 -37.5t-317 37.5t-131 90.5q0 35 63 65q153 -65 385 -65t385 65q63 -30 63 -65zM960 204q0 -53 -131 -90.5t-317 -37.5
t-317 37.5t-131 90.5q0 35 63 65q153 -65 385 -65t385 65q63 -30 63 -65zM512 268q-186 0 -317 37.5t-131 90.5q0 35 63 65q153 -65 385 -65t385 65q63 -30 63 -65q0 -53 -131 -90.5t-317 -37.5z" />
    <glyph glyph-name="uniE677" unicode="&#xe677;" 
d="M926 665l-40 39q-32 32 -78.5 32t-78.5 -32l-79 -77h-224h-1q-12 0 -20 -8l-130 -127l-178 -173q-32 -32 -32 -77t32 -77l276 -270q33 -32 79.5 -32t78.5 32l177 172q0 1 1 1l128 126q6 5 8 13q2 4 2 10v217l79 77q33 32 33 77t-33 77zM791 225l-122 -118v-1l-59 -57
l-118 -115q-17 -16 -40 -16t-39 16l-276 269q-17 16 -17 38.5t17 38.5l118 116l147 144l34 32h183q-12 -57 31 -99l39 -39q43 -41 102 -29v-180zM886 550l-78 -77q-17 -16 -40 -16t-39 16l-40 38q-16 16 -16 38.5t16 38.5l79 77q16 16 39.5 16t39.5 -16l39 -38
q17 -16 17 -38.5t-17 -38.5zM707 356h-140v133q0 11 -8.5 19t-20 8t-19.5 -8t-8 -19v-83l-24 23q-8 8 -20 8t-20 -8t-8 -19t8 -19l59 -58l-51 -50l-59 57q-9 8 -20.5 8t-19.5 -8t-8 -19t8 -19l59 -58l-62 -61q-9 -8 -9 -19.5t8.5 -19.5t20 -8t19.5 8l63 62l59 -58
q8 -8 19.5 -8t20 8t8.5 19t-9 19l-59 58l52 50l59 -57q8 -8 19.5 -8t20 8t8.5 19t-8 19l-27 26h89q11 0 19 8t8.5 19.5t-8 19.5t-19.5 8zM707 356z" />
    <glyph glyph-name="uniE678" unicode="&#xe678;" 
d="M929 609h-75q12 0 24 19.5t19 42.5q14 46 -17 87q-2 3 -4 5q-28 24 -62.5 31.5t-64 3t-62 -17.5t-53.5 -26t-41 -27q-11 -8 -13.5 -21t5 -24t20.5 -13.5t24 5.5l1 1l2 1q17 12 36.5 23.5t49.5 24t60.5 11.5t52.5 -19q9 -13 5 -26q-6 -17 -24 -32.5t-32 -20.5
q-63 -24 -105 -27q-1 0 -3 -0.5t-3 -0.5h-88q-1 0 -2 3q-2 2 -2 3q-109 101 -127 114q-89 60 -165.5 69t-128.5 -35q-2 -2 -4 -5q-31 -41 -17 -87q7 -23 19 -42.5t24 -19.5h-82q-13 0 -23 -10t-10 -23v-160q0 -9 0.5 -13t3.5 -9.5t10 -7.5t18 -2v-313q0 -42 27.5 -72.5
t66.5 -30.5h645q39 0 66.5 30.5t27.5 72.5v313q21 0 26.5 7.5t5.5 24.5v160q0 14 -9 23.5t-22 9.5zM357 610q-42 3 -107 28q-13 4 -31 19.5t-23 32.5q-4 14 5 27q22 17 53 19t62.5 -10t54.5 -24.5t44 -27.5q3 -1 74 -65h-127q-1 0 -3 1h-2zM896 545v-96h-765l-4 -1v97h769z
M834 32h-645q-12 0 -21 12.5t-9 26.5v314h705v-314q0 -15 -9 -27t-21 -12z" />
    <glyph glyph-name="uniE679" unicode="&#xe679;" 
d="M648 331q51 54 82 133.5t31 143.5q0 62 -29.5 119t-87.5 95t-132 38t-132 -38t-87.5 -95t-29.5 -119q0 -64 31 -143.5t82 -133.5q-38 -23 -60.5 -37t-56 -37t-53.5 -41t-43.5 -43.5t-36 -49.5t-21.5 -53.5t-9 -61.5q0 -28 8 -49t19 -30t22 -14.5t19 -5.5l8 -1h680
q3 0 8 0.5t18 6t23 14.5t18.5 30t8.5 49q0 32 -9 61.5t-21.5 53.5t-36 49.5t-43.5 43.5t-53.5 41t-56 37t-60.5 37zM825 -38l-231 -1l-53 224l54 114q-38 -29 -81 -29h-4q-19 0 -39.5 7t-30.5 14l-11 8l54 -114l-53 -224l-231 1q-1 1 -6 -0.5t-13 3t-15.5 10.5t-13 22.5
t-5.5 39.5q0 36 18.5 68.5t54.5 62t71.5 53t87.5 56t85 57.5q-60 34 -102.5 114.5t-42.5 146.5q0 51 22.5 98.5t68 79.5t102.5 32h2q57 0 102.5 -32t68 -79.5t22.5 -98.5q0 -66 -42.5 -146.5t-102.5 -114.5q33 -25 85 -57.5t87.5 -56t71.5 -53t54.5 -62t18.5 -68.5
q0 -17 -3 -30t-7.5 -21t-10 -13t-11.5 -7.5t-10.5 -3.5t-7.5 0h-3z" />
    <glyph glyph-name="uniE67A" unicode="&#xe67a;" horiz-adv-x="1025" 
d="M518 390zM41 389.5q0 96.5 38 185t101.5 152t152 101.5t185 38t185 -38t152 -101.5t101.5 -152t38 -185t-38 -185t-101.5 -152t-152 -101.5t-185 -38t-185 38t-152 101.5t-101.5 152t-38 185zM411 60l298 302q12 12 12 37t-12 38l-298 301v-678z" />
    <glyph glyph-name="uniE67B" unicode="&#xe67b;" 
d="M564 698q-23 11 -43 -5l-229 -191h-183q-17 0 -28.5 -11.5t-11.5 -27.5l-1 -320q0 -16 11.5 -28t28.5 -12h185l228 -190q11 -9 26 -9q9 0 17 4q23 10 23 36v718q0 25 -23 36zM719 499q-15 7 -30.5 1.5t-22.5 -20.5t-1.5 -30.5t19.5 -22.5q4 -2 8 -5t15 -13t19 -22.5
t14.5 -34t6.5 -46.5q0 -27 -6.5 -49.5t-14 -36t-17 -24t-13.5 -13.5t-7 -4q-15 -7 -20 -23t2 -31q11 -22 36 -22q9 0 17 4q6 3 13 8t24.5 21.5t30.5 37t23.5 56t10.5 76.5q0 39 -11 73.5t-25 54.5t-32 36.5t-26 21t-13 7.5zM843 616q-14 9 -30 5.5t-25 -17.5t-5.5 -30
t17.5 -25q5 -4 13 -10.5t26 -28t31.5 -47t24.5 -68.5t11 -92t-10.5 -92t-23.5 -69t-30.5 -47.5t-25 -28t-12.5 -9.5q-14 -9 -17 -25.5t6 -30.5q12 -17 33 -17q12 0 22 6q7 5 17.5 13.5t33.5 36t40.5 60t32 87.5t14.5 116t-15 116t-33.5 87.5t-42.5 60.5t-34.5 36t-17.5 13z
M843 616z" />
    <glyph glyph-name="uniE67C" unicode="&#xe67c;" 
d="M612 383l-78 -100q-2 -3 -12 -16q-8 -10 -13 -17q-2 5 -7 11q-11 14 -15 20l-82 102h-64l115 -140h-104v-39h127v-66h-127v-40h127v-77h57v77h135v40h-135v66h135v39h-109l119 140h-69zM796 471q-19 15 -53 28t-58.5 23.5t-29.5 23.5q-1 4 -3 8q18 1 18 13q0 5 -6 9
t-15 4h-1q1 11 10.5 24.5t25.5 41.5t29 66q-18 8 -45 15.5t-59 13.5t-59.5 3t-37.5 -17q-15 -20 -26.5 -25t-20.5 1.5t-24 14.5t-32.5 15t-50 2t-73.5 -24q24 -44 54.5 -81.5t34.5 -50.5q-18 -1 -18 -12.5t18 -12.5q0 -1 -0.5 -2t-0.5 -2q-4 -14 -29.5 -24.5t-61.5 -24
t-56 -30.5q-21 -18 -45.5 -52.5t-47.5 -80t-40 -98t-25.5 -104.5t0 -101t32 -87t74 -61.5t123.5 -25.5l214 -6q24 0 214 6q73 2 123.5 25.5t74 61.5t32 87t-0.5 101t-25.5 104.5t-40 98t-47.5 80t-45 52.5zM703 -92q-79 -2 -122 -2t-56 1l-14 1q-3 -1 -13 -1.5t-56 -1
t-122 2.5q-63 2 -106 22.5t-62.5 53.5t-26 75.5t2 88t23 91t35.5 85t42 69.5t39 45q13 10 41.5 21.5t52 19.5t43 29t21.5 51q0 2 1 3q-16 2 -16 11.5t16 10.5q-4 12 -29 46t-45 71q23 3 40.5 -1t27 -12.5t19 -17.5t17.5 -16t22.5 -6t33.5 11q22 28 56.5 41t70.5 1
q-8 -26 -18.5 -51t-16.5 -40t-7 -26q19 1 19 -11q0 -9 -15 -11q1 -3 2 -7q-1 -25 17.5 -44t42 -29t52.5 -22t41 -22q18 -15 39 -45t41.5 -69.5t35.5 -85t23.5 -91t2 -88t-26 -75.5t-62.5 -53.5t-106 -22.5z" />
    <glyph glyph-name="uniE67D" unicode="&#xe67d;" 
d="M469 546q-85 -41 -123 -128q-5 -12 0 -24.5t17 -17.5q6 -2 12 -2q22 0 30 19q28 65 92 95q12 6 16.5 18.5t-1.5 24.5t-18.5 16.5t-24.5 -1.5zM797.5 350q-13.5 0 -22.5 -9.5t-9 -22.5q0 -78 -55.5 -133t-132.5 -55q-14 0 -23 -9.5t-9 -22.5t9 -22.5t23 -9.5q104 0 178 74
t74 178q0 13 -9.5 22.5t-23 9.5zM1015 -72l-146 145q38 44 61 98q30 71 30 149t-30 150q-30 68 -83 121.5t-122 82.5q-71 30 -149 30t-149 -30q-69 -29 -122.5 -82.5t-82.5 -121.5q-30 -72 -30 -150t30 -149q29 -69 82.5 -122t122.5 -83q71 -30 149 -30t149 30q55 23 99 61
l145 -145q10 -9 23 -9t22.5 9.5t9.5 22.5t-9 23zM576 0q-87 0 -160.5 43t-116.5 116.5t-43 160.5t43 160.5t116.5 116.5t160.5 43t160.5 -43t116.5 -116.5t43 -160.5t-43 -160.5t-116.5 -116.5t-160.5 -43zM319 -64h-179q-31 0 -53.5 22.5t-22.5 53.5v744q0 31 22.5 53.5
t53.5 22.5h680q31 0 53.5 -22.5t22.5 -53.5v-93q0 -13 9.5 -22.5t22.5 -9.5t22.5 9.5t9.5 22.5v93q0 58 -41 99t-99 41h-680q-58 0 -99 -41t-41 -99v-744q0 -58 41 -99t99 -41h179q13 0 22.5 9.5t9.5 22.5t-9.5 22.5t-22.5 9.5z" />
    <glyph glyph-name="uniE67E" unicode="&#xe67e;" 
d="M898 -127h-772q-13 0 -22 8.5t-9 21.5v704q0 11 8 19q3 5 7 9l254 246q9 14 25 14h509q13 0 22 -8.5t9 -21.5v-962q0 -13 -9 -21.5t-22 -8.5zM401 833l-216 -210h216v210zM868 835h-407v-242q0 -12 -9 -21t-21 -9h-2h-2h-271v-630h712v902zM458 185l205 205l51 -52
l-205 -204l-51 -52l-148 148l52 51z" />
    <glyph glyph-name="uniE67F" unicode="&#xe67f;" 
d="M757 12h-490q-61 0 -105 43.5t-44 104.5v490q0 62 44 105.5t105 43.5h331q10 0 18 -7.5t8 -18.5t-8 -18.5t-18 -7.5h-331q-40 0 -68 -28.5t-28 -68.5v-490q0 -39 28 -67.5t68 -28.5h490q40 0 68 28.5t28 67.5v296q0 11 8 19t18.5 8t18.5 -8t8 -19v-296q0 -61 -44 -104.5
t-105 -43.5zM757 12zM486 252l-171 213q-7 8 -6 19t9.5 17.5t19.5 5.5t18 -9l134 -168l348 350q8 7 19 7t18.5 -7.5t7.5 -18.5t-8 -18zM486 252z" />
    <glyph glyph-name="uniE680" unicode="&#xe680;" 
d="M958 423v-292h-3q-3 -62 -69.5 -115t-171.5 -83t-221 -30q-115 0 -211.5 30t-153 82.5t-60.5 115.5h-3v292q-2 1 -1 16t1 16q0 67 56 122.5t154.5 87.5t217.5 32q120 0 227 -32t172.5 -88t65.5 -122q0 -1 1 -16t-1 -16zM493 626q-76 0 -145.5 -15.5t-117.5 -40.5
t-76 -55.5t-28 -60t28 -59t76 -53t117.5 -38.5t145.5 -15q102 0 197 25t151.5 63.5t56.5 77t-56.5 78.5t-152 66.5t-196.5 26.5zM902 325q-56 -48 -174 -78.5t-235 -30.5q-113 0 -213 30t-158 79v-48q10 -41 64 -77.5t136.5 -58t170.5 -21.5q89 0 180.5 21.5t155 58.5
t73.5 77v48zM902 170q-56 -49 -168.5 -80.5t-240.5 -31.5q-121 0 -217 30.5t-154 81.5v-37q16 -66 121 -113.5t250 -47.5q96 0 187.5 22.5t151.5 59.5t70 79v37z" />
    <glyph glyph-name="uniE681" unicode="&#xe681;" 
d="M256 428l256 -321l257 321h-513z" />
    <glyph glyph-name="uniE682" unicode="&#xe682;" 
d="M890 32q-18 25 -41.5 60.5t-44 78.5t-35.5 91t-15 98q0 48 -13.5 87.5t-35.5 70t-52 51.5t-64 31q7 11 11 24.5t4 27.5q0 40 -27.5 68t-68 28t-68.5 -28t-28 -68q0 -28 16 -54q-31 -10 -60.5 -31t-51.5 -50.5t-36 -69t-14 -88.5q0 -52 -14.5 -99t-35 -89t-43 -78.5
t-39.5 -65.5q-11 -17 -4.5 -28.5t20.5 -11.5h721q5 0 11 3.5t10 9.5t4.5 14.5t-6.5 17.5zM536 625q-11 -11 -27 -12h-2q-16 0 -26.5 11.5t-10.5 27.5q0 17 10.5 27.5t27.5 10.5t28 -10.5t11 -27.5q0 -16 -11 -27zM512 -148q38 0 65.5 27.5t27.5 65.5h-186q0 -38 27.5 -65.5
t65.5 -27.5z" />
    <glyph glyph-name="uniE683" unicode="&#xe683;" 
d="M512 -212q-139 0 -257 68.5t-186.5 186.5t-68.5 257t68.5 257t186.5 186.5t257 68.5t257 -68.5t186.5 -186.5t68.5 -257t-68.5 -257t-186.5 -186.5t-257 -68.5zM455 -41h114v113h-114v-113zM539 641q-51 0 -95 -13t-80.5 -39t-57.5 -71t-21 -104l113 -1q0 47 29.5 81
t83.5 34q27 0 50.5 -6.5t43 -27.5t19.5 -52q0 -19 -3.5 -33t-7 -23t-17 -21.5t-21.5 -18.5t-33 -25q-91 -61 -88 -158v-33h116q0 35 13 62.5t30 43.5t42.5 42t42.5 52q42 60 42 136q0 67 -57.5 121t-143.5 54z" />
    <glyph glyph-name="uniE684" unicode="&#xe684;" 
d="M683 343l245 243q12 -12 12 -29v-514q0 -16 -11 -28zM99 587q12 12 29 12l772 -1q15 0 27 -11l-414 -328zM96 15q-11 12 -11 28v514q0 17 12 29l244 -243zM512 188l128 112l287 -286q-11 -12 -27 -12h-775q-15 0 -27 12l286 286z" />
    <glyph glyph-name="uniE685" unicode="&#xe685;" 
d="M443 -124q-108 137 -227 237t-211 134l283 176l138 -273q4 11 13 31.5t39 82t63.5 120t85.5 136.5t106.5 143t125.5 127.5t143 99.5q-2 -28 -9 -93t-9 -100t6 -90t29 -105q-55 -12 -140 -84.5t-168 -169t-156 -197.5t-112 -175v0z" />
    <glyph glyph-name="uniE686" unicode="&#xe686;" horiz-adv-x="1025" 
d="M333 163q-42 -38 -75 -39t-61 29l-46 49q-29 30 -29 71.5t29 71.5l194 194q29 30 71 30t71 -30l36 -36q23 -22 28.5 -53.5t-7.5 -59.5l86 -66q45 45 45 107.5t-45 107.5l-107 107q-44 45 -107 45t-107 -45l-265 -265q-44 -45 -44 -107.5t44 -107.5l107 -107
q45 -45 107.5 -45t107.5 45l102 105l-73 70zM987 611l-107 107q-44 45 -107 45t-107 -45l-31 -34q-11 -12 -27 -27l71 -68l32 34q29 30 71 30t71 -30l36 -35q30 -30 30 -72t-30 -72l-174 -181q-30 -30 -71.5 -30t-71.5 30l-29 49q-18 13 -28.5 23t-13.5 19.5t-3 14t3 15.5
t4 16l-78 78q-45 -45 -45 -107.5t45 -107.5l107 -107q44 -45 106.5 -45t107.5 45l239 240q24 27 32.5 59t4 58.5t-12 49t-16.5 35.5z" />
    <glyph glyph-name="uniE687" unicode="&#xe687;" 
d="M959 20q0 -47 -32.5 -79.5t-79.5 -32.5h-671q-46 0 -79 32.5t-33 79.5v335q0 30 15 56q24 73 123 260q11 17 21.5 27.5t23 14.5t20.5 5t24 1h442q15 0 23 -1t21 -5.5t24 -16t23 -29.5q44 -83 73.5 -147.5t38 -85.5t8.5 -23q15 -26 15 -56v-335zM332 663q-16 0 -25 -1.5
t-22.5 -10.5t-24.5 -27q-28 -53 -83 -157h195l39 196h-79zM546 663h-79l-39 -196h161zM595 411h-167v-93q0 -19 12 -33t30 -14h84q17 0 29 14t12 33v93zM765 620q-12 20 -26 30t-22.5 11.5t-25.5 1.5h-83l43 -196h195q-15 28 -46 87t-35 66zM903 355q0 23 -16.5 39.5
t-39.5 16.5h-196v-126q0 -29 -20.5 -49.5t-49.5 -20.5h-139q-29 0 -49.5 20.5t-20.5 49.5v126h-196q-23 0 -39.5 -16.5t-16.5 -39.5v-335q0 -24 16.5 -40t39.5 -16h671q23 0 39.5 16t16.5 40v335zM805 20h-251q-6 0 -10 4t-4 10v27q0 6 4 10t10 4h251q6 0 10 -4t4 -10v-27
q0 -6 -4 -10t-10 -4zM805 103h-140q-5 0 -9.5 4.5t-4.5 9.5v28q0 6 4.5 10t9.5 4h140q6 0 10 -4t4 -10v-28q0 -5 -4 -9.5t-10 -4.5z" />
    <glyph glyph-name="uniE688" unicode="&#xe688;" 
d="M387 630q55 0 102 -29.5t72 -79.5l31 -62l49 50q32 33 77 33t76.5 -32.5t31.5 -77.5v-3v-41l41 -8q46 -8 76.5 -44.5t30.5 -84.5q0 -54 -38 -92t-91 -38h-100l22 103q7 31 7 54q0 49 -30 80q-31 31 -81 31q-43 0 -79 -21q-5 -3 -9 -5q-30 26 -75 26q-15 0 -29 -2v1h-64
h-29h-1h-1l-78 -4l-38 -1l-8 -37l-4 -19l-13 -56l35 -2q-1 -3 -1 -5l-32 -143h-59q-53 0 -90.5 38t-37.5 92q0 47 29 83.5t74 45.5l39 8v40v4q0 82 57 140t138 58zM387 679q-101 0 -172.5 -72.5t-71.5 -174.5v-2v-2q-62 -13 -102.5 -62.5t-40.5 -114.5q0 -74 52 -127
t126 -53h78h2q3 0 6 1t9.5 7t8.5 17l35 158q1 3 4 19q2 13 2 21q0 12 -6.5 16.5t-20.5 5.5l4 19l78 3h29l-16 -61l4 -1q19 23 36 38q16 14 32.5 20t36.5 6q28 0 44 -16q17 -16 17 -43q24 30 48 44.5t54 14.5q29 0 45 -16.5t16 -45.5q0 -18 -5 -44l-23 -105q-3 -11 -4 -21
q-1 -7 -1 -12q0 -13 6 -18t22 -7h126q74 0 126 53t52 127q0 67 -42 117t-105 61v3q0 66 -46.5 112.5t-111.5 46.5q-66 0 -113 -48q-31 62 -89.5 99t-128.5 37zM624 283q-8 0 -19 -8q-11 -7 -24 -21q-13 -15 -21 -31q-7 -15 -12 -40l-60 -261h82l68 286q3 13 4 22q2 7 3 15
v11q0 13 -5 20t-16 7zM461 283q-13 0 -32 -18q-18 -17 -28.5 -35t-15.5 -47l-46 -200h82l55 233q3 11 4 18q2 9 2 12v8q0 15 -5 22t-16 7z" />
    <glyph glyph-name="uniE689" unicode="&#xe689;" 
d="M350 97q-39 -34 -68.5 -35t-55.5 27l-41 44q-27 27 -27 65t27 65l175 176q27 26 65 26t65 -26l32 -33q21 -20 26 -48.5t-7 -53.5l78 -60q40 40 40 97t-40 98l-97 97q-40 40 -97 40t-97 -40l-240 -241q-40 -40 -40 -97t40 -98l97 -97q40 -40 97 -40t97 40l93 96l-66 63z
M943 503l-97 98q-40 40 -97 40t-97 -40l-34 -37l-19 -19l65 -62l28 32q27 27 65 27t65 -27l32 -32q27 -27 27 -65t-27 -65l-158 -165q-27 -27 -65 -27t-65 27l-26 44q-16 12 -25.5 21.5t-12 17.5t-3 12.5t2.5 14.5t4 15l-71 70q-41 -40 -41 -97t41 -98l97 -97q40 -41 97 -41
t97 41l217 218q21 24 29 53.5t4 53.5t-11 44t-15 32z" />
    <glyph glyph-name="uniE68A" unicode="&#xe68a;" 
d="M45 36h408v-204h117v204h408v58h-933v-58zM920 589q0 73 -51.5 124t-123.5 51h-467q-72 0 -123 -51t-51 -124v-379v-58h816v437zM861 210h-699v379q0 48 34 82.5t82 34.5h467q48 0 82 -34.5t34 -82.5v-379zM453 385h88l87 146h-87zM366 531l-88 -146h88l87 146h-87z" />
    <glyph glyph-name="uniE68B" unicode="&#xe68b;" 
d="M512 72q-138 0 -255.5 28.5t-186 77t-68.5 105.5q0 27 24 60q17 -23 45 -44q-5 -14 -5 -16q0 -41 59.5 -75.5t162.5 -54.5t224.5 -20t224 20t162.5 54.5t60 75.5q0 1 -5 16q28 21 45 44q24 -33 24 -60q0 -57 -68.5 -105.5t-186 -77t-256.5 -28.5zM512 253
q-138 0 -255.5 28t-186 76.5t-68.5 105.5t68.5 105.5t186 77t256 28.5t256 -28.5t186 -77t68.5 -105.5t-68.5 -105.5t-186 -76.5t-256.5 -28zM512 613q-121 0 -224 -20t-162.5 -54.5t-59.5 -75.5t59.5 -75.5t162.5 -54.5t224.5 -20t224 20t162.5 54.5t60 75.5t-60 75.5
t-162.5 54.5t-224.5 20zM71 119q-5 -15 -5 -17q0 -40 59.5 -75t162.5 -55t224.5 -20t224 20t162.5 55t60 75q0 2 -5 17q28 20 45 44q24 -33 24 -61q0 -57 -68.5 -105.5t-186 -76.5t-256 -28t-256 28t-186 76.5t-68.5 105.5q0 28 24 61q17 -24 45 -44z" />
    <glyph glyph-name="uniE68C" unicode="&#xe68c;" 
d="M330 -221q-30 0 -51.5 21.5t-21.5 52t21.5 52t52 21.5t52 -21.5t21.5 -52t-21.5 -52t-52.5 -21.5zM838 -221q-31 0 -52.5 21.5t-21.5 52t21.5 52t52 21.5t52 -21.5t21.5 -52t-21.5 -52t-51.5 -21.5zM321 -40q-39 0 -70 27.5t-36 67.5l-61 434l-35 202q-2 13 -11.5 22
t-21.5 9h-46q-15 0 -26 11t-11 26.5t11 26.5t26 11h46q40 0 71 -27.5t36 -67.5l35 -202l62 -435q1 -12 10.5 -21t20.5 -9h589q15 0 26 -11t11 -26.5t-11 -26.5t-26 -11h-589zM366 105q-14 0 -25 10t-12 25q-1 16 9 27.5t26 12.5l491 37q13 0 23 8.5t11 20.5l57 327
q3 20 -9 33q-6 7 -16 7h-627q-16 0 -27 11t-11 26.5t11 27t27 11.5h627q43 0 72 -33q34 -38 27 -94l-57 -327q-5 -39 -35.5 -66t-69.5 -27zM366 105z" />
    <glyph glyph-name="uniE68D" unicode="&#xe68d;" 
d="M951 457l-157 -156q-25 -26 -62 -26t-62 26l-157 156q-25 26 -25 62.5t25 62.5l157 156q25 26 62 26t62 -26l157 -156q25 -26 25 -62.5t-25 -62.5zM904 567l-125 124q-20 20 -47 20t-47 -20l-125 -124q-19 -20 -19 -47.5t19 -46.5l125 -125q20 -19 47 -19t47 19l125 125
q19 19 19 46.5t-19 47.5zM357 -165h-173l44 44h107q27 0 46.5 19.5t19.5 47.5v176q0 28 -19.5 47t-46.5 19h-177q-28 0 -47 -19t-19 -47v-107l-44 -44v173q0 37 25.5 63t62.5 26h221q36 0 62 -26t26 -63v-221q0 -36 -26 -62t-62 -26zM357 321h-221q-37 0 -62.5 26t-25.5 62
v221q0 37 25.5 62.5t62.5 25.5h221q36 0 62 -25.5t26 -62.5v-221q0 -36 -26 -62t-62 -26zM401 608q0 27 -19.5 46.5t-46.5 19.5h-177q-28 0 -47 -19.5t-19 -46.5v-177q0 -27 19 -46.5t47 -19.5h177q27 0 46.5 19.5t19.5 46.5v177zM622 233h220q37 0 63 -26t26 -63v-221
q0 -36 -26 -62t-63 -26h-220q-37 0 -63 26t-26 62v221q0 37 26 63t63 26zM577 -54q0 -28 19.5 -47.5t47.5 -19.5h176q28 0 47.5 19.5t19.5 47.5v176q0 28 -19.5 47t-47.5 19h-176q-28 0 -47.5 -19t-19.5 -47v-176zM577 -54z" />
    <glyph glyph-name="uniE68E" unicode="&#xe68e;" 
d="M898 -21l-25 470q-1 36 -26.5 61.5t-61.5 25.5h-59v112q0 35 -26 56t-65 21h-229q-40 0 -62.5 -21t-22.5 -56v-112h-69q-36 0 -62 -25.5t-26 -61.5l-25 -470v-1q0 -36 25.5 -62t61.5 -26h584q36 0 62 26t26 62v1zM371 648q0 27 35 27h229q40 0 40 -27v-112h-304v112z
M810 -59h-584q-15 0 -25.5 10.5t-11.5 25.5l26 470v1q0 15 10.5 26t26.5 11h533q15 0 26 -11t11 -26v-1l25 -470q0 -15 -11 -25.5t-26 -10.5zM265.5 256.5q-5.5 0.5 -9 -3t-3.5 -9.5l-1 -10q0 -5 3.5 -10t8.5 -5h1q5 0 8.5 4t3.5 10l1 11q0 5 -3.5 8.5t-9 4zM263 207
q-5 0 -9 -3.5t-4 -8.5l-10 -190q0 -5 3.5 -9t8.5 -5h1q5 0 8.5 3.5t3.5 8.5l10 191q0 5 -3.5 9t-8.5 4z" />
    <glyph glyph-name="uniE68F" unicode="&#xe68f;" 
d="M86 470v211v5q0 3 2.5 10.5t6.5 13.5t14 11t23 5h209v-84h-145q-22 -3 -24 -21v-151h-86zM684 726h209q2 1 5 0.5t10.5 -3t13.5 -6.5t11 -14t5 -23v-209h-84v146q-3 23 -21 25h-149v84zM86 129v-210v-5q0 -3 2.5 -10.5t6.5 -13.5t14 -11t23 -5h209v85h-145q-22 3 -24 21
v149h-86v0zM684 -126h209q2 -1 5 -0.5t10.5 3t13.5 6.5t11 14t5 23v209h-84v-146q-4 -22 -22 -24h-148v-85zM86 326h852v-52h-852v52zM256 555h41v-512h-41v512zM342 555h41v-512h-41v512zM522 555h41v-512h-41v512zM728 555h41v-512h-41v512zM411 555h72v-512h-72v512z
M587 555h117v-512h-117v512z" />
    <glyph glyph-name="uniE690" unicode="&#xe690;" 
d="M683 752h-341q-32 0 -54.5 -22.5t-22.5 -54.5v-775q0 -32 22.5 -54.5t54.5 -22.5h341q32 0 54.5 22.5t22.5 54.5v775q0 32 -22.5 54.5t-54.5 22.5zM466 690h93q6 0 10.5 -4.5t4.5 -11t-4.5 -11t-10.5 -4.5h-93q-7 0 -11.5 4.5t-4.5 11t4.5 11t11.5 4.5zM512.5 -146
q-19.5 0 -33 13.5t-13.5 33t13.5 33t33 13.5t33 -13.5t13.5 -33t-13.5 -33t-33 -13.5zM729 -22h-433v619h433v-619z" />
    <glyph glyph-name="uniE691" unicode="&#xe691;" 
d="M512 -88q-81 0 -154 31q-71 30 -126 85t-85 126q-31 73 -31 153.5t31 154.5q30 71 85 125.5t126 84.5q73 32 154 32t154 -32q71 -30 126 -84.5t85 -125.5q31 -74 31 -154.5t-31 -153.5q-30 -71 -85 -126t-126 -85q-73 -31 -154 -31zM512 652q-143 0 -244 -101
t-101 -243.5t101 -243.5t244 -101t244 101t101 243.5t-101 243.5t-244 101zM477 551l7 -344h54l7 344h-68zM481 122.5q-13 -12.5 -13 -30.5t13 -30.5t31 -12.5t31 12.5t13 30.5t-13 30.5t-31 12.5t-31 -12.5z" />
    <glyph glyph-name="uniE692" unicode="&#xe692;" 
d="M960 -148h-896v896h896v-896zM904 -92v784h-784v-784h784zM428 496v56h392v-56h-392zM344 552v-56h-140v56h140zM428 272v56h392v-56h-392zM344 328v-56h-140v56h140zM428 48v56h392v-56h-392zM344 104v-56h-140v56h140z" />
    <glyph glyph-name="uniE693" unicode="&#xe693;" 
d="M793 -145h-558q-23 0 -39 16t-16 39v698q0 23 16 39t39 16h28v-83v-642h502v642v83h28q23 0 39.5 -16t16.5 -39v-698q0 -23 -16.5 -39t-39.5 -16zM347 412h335v-83h-335v83zM682 50h-335v84h335v-84zM347 273h335v-84h-335v84zM709 580v-56q0 -12 -8 -20t-19 -8h-335
q-12 0 -20 8t-8 20v56v111v28q0 12 8 20t20 8h335q11 0 19 -8t8 -20v-56v-83zM626 663h-223v-83h223v83z" />
    <glyph glyph-name="uniE694" unicode="&#xe694;" 
d="M109 736h806v-134h-806v134zM915 132h-202v-268h-402v268h-202l403 403z" />
    <glyph glyph-name="uniE695" unicode="&#xe695;" 
d="M453 265l357 -298q5 -5 9 -3t4 9v605q0 7 -4 9t-9 -2l-357 -298q-6 -5 -6 -11.5t6 -10.5zM198 265l357 -298q6 -5 10 -3t4 9v116q0 18 -14 29l-162 135q-5 5 -5 11.5t5 10.5l162 135q14 12 14 29v139q0 7 -4 9t-10 -2l-357 -298q-5 -5 -5 -11.5t5 -10.5z" />
    <glyph glyph-name="uniE696" unicode="&#xe696;" 
d="M874 746q-72 73 -165.5 111.5t-196 38.5t-196 -38.5t-166 -111t-111.5 -166t-39 -196.5t39 -196.5t111.5 -166t166 -111t196 -38.5t196 38.5t165.5 111.5q98 98 133 230t0 264t-133 230zM829 67q-63 -64 -145 -98t-172 -34t-171.5 34t-145 97.5t-97.5 145.5t-34 172
t34 172t97.5 145.5t145 97.5t171.5 34t172 -34t145 -98q87 -86 117.5 -201.5t-0.5 -231t-117 -201.5zM472 601v93h81v-93h-81zM472 32v480h81v-480h-81z" />
    <glyph glyph-name="uniE697" unicode="&#xe697;" 
d="M943 149q22 21 22 51.5t-22 51.5l-378 367q-22 22 -53 22t-53 -22l-378 -367q-22 -21 -22 -51.5t22 -52t53 -21.5t53 22l325 315l325 -315q22 -22 53 -22t53 22z" />
    <glyph glyph-name="uniE698" unicode="&#xe698;" 
d="M315 505l3 5l2 3l3 2l4 2h20l2 -2l2 -2l3 -3l2 -5v-395l-2 -3v-5h-5l-2 -2l-10 -2h-2l-10 2l-2 2l-3 3l-2 2l-3 5v393zM495 503l3 5l2 5l3 2l5 2h19l2 -2h5v-5l2 -2v-398l-2 -3v-5h-5l-2 -2l-10 -2h-2l-7 2l-5 2l-5 5l-3 7v389zM717 110l-3 -3v-5h-5l-2 -2l-10 -2h-2
l-7 2l-5 2l-3 3l-2 5l-2 4v389l2 5l2 5l3 2l5 2h19l2 -2h5v-5l3 -2l2 -10v-379zM416 670q8 40 36.5 61t60.5 19.5t60 -23t35 -57.5h-192zM337 668h-180l-7 -3l-5 -2l-3 -3l-2 -2l-5 -5l-2 -5l-3 -7v-21l3 -7l2 -5l3 -2l2 -3l2 -2l3 -3l5 -2l4 -2h34v-520l2 -14l3 -10l2 -7
l3 -7l2 -5l2 -5l3 -5l2 -4l3 -3l2 -5l2 -4l3 -3l2 -2l3 -5l2 -2l2 -3l3 -2l2 -2l3 -3l4 -5l3 -2l2 -2l3 -3l4 -2l3 -2l2 -3l5 -2l2 -3l5 -2l5 -2l5 -3l5 -2l4 -3l8 -2l7 -2l9 -3l13 -2h379l12 2l10 3l7 2l7 2l5 3l5 2l5 3l4 2l5 2l3 3l4 2l3 3l2 2l5 2l5 5l2 2l3 3l7 7l2 2
l3 3l2 2l2 5l3 2l2 3l3 4l2 5l2 3l3 4l2 5l3 5l2 7l2 5l3 7l2 10l3 14v520h33l5 2l5 2l2 3l3 2l2 3l3 2l2 5l2 7v21l-2 7l-2 5l-3 3l-2 2l-3 2l-2 3l-5 2l-7 3h-180q-2 47 -25.5 84.5t-59 57.5t-78.5 22.5t-81 -12.5t-68 -54.5t-39 -97.5z" />
    <glyph glyph-name="uniE699" unicode="&#xe699;" 
d="M760 603h-81q39 -11 68 -36h179q17 22 37 36h-29v200h-229l-56 57l-42 -42v76h-127l-1 -204l-38 -39l38 -39v-9h-89q26 -6 45 -15q15 -7 38 -21h40q26 25 62 36h-35h220zM825 603l23 40l9 9l-3 2l2 3l-104 110zM747 635q-78 -24 -156 -24q-28 0 -57 3l3 -3h218l17 19
q-17 3 -25 5zM827 623l-7 -12h73v12q-34 -2 -66 0zM1002 610q-5 1 -10 -2q-4 3 -9 3h-54h-453h-108l-25 -1h-25q-21 2 -135 -1l144 -449l-157 449h13l-13 41q-2 6 -7 10q-6 4 -13 4h-126q-8 0 -13 -5t-5 -12.5t5.5 -12.5t12.5 -5h115l153 -480q2 -5 6 -8q0 -7 4.5 -13
t11.5 -6h615q7 0 15 6q12 4 13 15l61 447q1 7 -3.5 13t-12.5 7zM404 288q0 -8 -5.5 -13t-12.5 -5t-12.5 5t-5.5 13v143q0 8 5.5 13t12.5 5t12.5 -5t5.5 -13v-143zM495 288q0 -8 -5.5 -13t-13 -5t-12.5 5t-5 13v143q0 8 5 13t12.5 5t13 -5t5.5 -13v-143zM585 288
q0 -7 -5.5 -12.5t-13 -5.5t-13 5.5t-5.5 12.5v144q0 7 5.5 12.5t13 5.5t13 -5.5t5.5 -12.5v-144zM676 288q0 -7 -5.5 -12.5t-13 -5.5t-13 5.5t-5.5 12.5v144q0 7 5.5 12.5t13 5.5t13 -5.5t5.5 -12.5v-144zM766 288q0 -7 -5 -12.5t-13 -5.5t-13 5.5t-5 12.5v144q0 7 5 12.5
t13 5.5t13 -5.5t5 -12.5v-144zM857 288q0 -8 -5.5 -13t-13 -5t-12.5 5t-5 13v143q0 8 5 13t12.5 5t13 -5t5.5 -13v-143zM170 609l157 -449l-144 449h-13zM433 56q-38 0 -65 -26.5t-27 -64t27 -64t65 -26.5t65 26.5t27 64t-27 64t-65 26.5zM834 56q-38 0 -65 -26.5t-27 -64
t27 -64t65.5 -26.5t65.5 26.5t27 64t-27 64t-66 26.5zM834 -90z" />
    <glyph glyph-name="uniE69A" unicode="&#xe69a;" 
d="M86 193l426 426l426 -427z" />
    <glyph glyph-name="uniE69B" unicode="&#xe69b;" horiz-adv-x="1050" 
d="M409 834h86v-44h-64q-13 0 -22 -9t-9 -22t9 -22t22 -9h190q13 0 22 9t9 22t-9 22t-22 9h-64v44h87q13 0 22 9t9 22t-9 22t-22 9h-235q-13 0 -22 -9t-9 -22t9 -22t22 -9zM268 520.5q0 -12.5 9 -22t22 -9.5h451q13 0 22 9.5t9 22t-9 21.5t-22 9h-451q-13 0 -22 -9t-9 -21.5
zM299 321h451q13 0 22 9t9 22t-9 22t-22 9h-451q-13 0 -22 -9t-9 -22t9 -22t22 -9zM980 70v617q-2 27 -13 49q-18 41 -57 62q-31 17 -63 17h-55q-13 0 -22 -9t-9 -21.5t9 -21.5t22 -10h55q18 -1 35 -10q31 -18 36 -61v-666q0 -34 -22.5 -57.5t-54.5 -23.5h-278v-1h-354
q-32 0 -55 24t-23 58q0 662 1 665q4 43 35 61q17 10 36 11h54q13 0 22 9t9 22t-9 22t-22 9h-55q-31 -1 -62 -17q-64 -35 -71 -117v-5v-4v-656q0 -60 41 -102t99 -42l632 1q57 0 98 41.5t41 101.5v54zM297 156h310q12 0 20 8.5t8 20t-8 19.5t-20 8h-310q-12 0 -20 -8
t-8 -19.5t8 -20t20 -8.5zM600 -5q8 -8 19.5 -8t19.5 8l173 169q9 8 9 19.5t-8 20t-20 8.5t-20 -8l-153 -149l-44 42q-8 8 -19.5 8t-19.5 -8.5t-8 -20t8 -19.5z" />
    </font>
</defs>
</svg>
